<mxfile host="app.diagrams.net" modified="2024-04-27T14:30:43.265Z" agent="Mozilla/5.0 (Windows NT 10.0; Win64; x64) AppleWebKit/537.36 (KHTML, like Gecko) Chrome/124.0.0.0 Safari/537.36 Edg/124.0.0.0" etag="uEltz4DYVRFTTv2Y7Cdm" version="24.3.1" type="device">
  <diagram name="Architecture-All" id="cT-fVTa-RBTLiGJaEwlq">
    <mxGraphModel dx="1611" dy="2040" grid="1" gridSize="10" guides="1" tooltips="1" connect="1" arrows="1" fold="1" page="1" pageScale="1" pageWidth="827" pageHeight="1169" math="0" shadow="0">
      <root>
        <mxCell id="0" />
        <mxCell id="1" style="locked=1;" parent="0" />
        <mxCell id="uGHR-QCsVLS1HqOmRDyR-9" value="&lt;b&gt;Google &lt;/b&gt;Cloud Platform" style="fillColor=#F6F6F6;strokeColor=none;shadow=1;gradientColor=none;fontSize=14;align=left;spacing=10;fontColor=#717171;9E9E9E;verticalAlign=top;spacingTop=-4;fontStyle=0;spacingLeft=40;html=1;whiteSpace=wrap;" parent="1" vertex="1">
          <mxGeometry x="30" y="30" width="1000" height="500" as="geometry" />
        </mxCell>
        <mxCell id="uGHR-QCsVLS1HqOmRDyR-10" value="" style="shape=mxgraph.gcp2.google_cloud_platform;fillColor=#F6F6F6;strokeColor=none;shadow=0;gradientColor=none;" parent="uGHR-QCsVLS1HqOmRDyR-9" vertex="1">
          <mxGeometry width="23" height="20" relative="1" as="geometry">
            <mxPoint x="20" y="10" as="offset" />
          </mxGeometry>
        </mxCell>
        <mxCell id="uGHR-QCsVLS1HqOmRDyR-11" value="Architecture: MLOps Exercise | Closer Academy " style="fillColor=#4DA1F5;strokeColor=none;shadow=1;gradientColor=none;fontSize=14;align=left;spacingLeft=50;fontColor=#ffffff;whiteSpace=wrap;html=1;" parent="1" vertex="1">
          <mxGeometry x="30" y="-10" width="1000" height="40" as="geometry" />
        </mxCell>
        <object label="Storage | Layer" id="uGHR-QCsVLS1HqOmRDyR-15">
          <mxCell style="locked=1;" parent="0" />
        </object>
        <mxCell id="uGHR-QCsVLS1HqOmRDyR-16" value="Storage" style="rounded=1;whiteSpace=wrap;html=1;fillColor=#E0E0E0;strokeColor=none;shadow=1;align=left;verticalAlign=bottom;spacingLeft=10;fontSize=17;fontFamily=Roboto;fontSource=https%3A%2F%2Ffonts.googleapis.com%2Fcss%3Ffamily%3DRoboto;fontStyle=0;arcSize=7;textShadow=1;" parent="uGHR-QCsVLS1HqOmRDyR-15" vertex="1">
          <mxGeometry x="70" y="288" width="730" height="212" as="geometry" />
        </mxCell>
        <mxCell id="h4RZlXd0sAcOHO_w20zh-31" value="Storage | Cloud Storage" style="locked=1;" parent="0" />
        <mxCell id="uGHR-QCsVLS1HqOmRDyR-26" value="" style="group" parent="h4RZlXd0sAcOHO_w20zh-31" vertex="1" connectable="0">
          <mxGeometry x="77" y="339" width="140" height="50" as="geometry" />
        </mxCell>
        <mxCell id="uGHR-QCsVLS1HqOmRDyR-22" value="" style="rounded=1;whiteSpace=wrap;html=1;strokeColor=none;shadow=1;fillColor=#E6E6E6;" parent="uGHR-QCsVLS1HqOmRDyR-26" vertex="1">
          <mxGeometry width="140" height="50" as="geometry" />
        </mxCell>
        <mxCell id="uGHR-QCsVLS1HqOmRDyR-23" value="your-landing-zone" style="shape=image;verticalLabelPosition=middle;labelBackgroundColor=none;verticalAlign=middle;aspect=fixed;imageAspect=0;image=data:image/svg+xml,PHN2ZyB2aWV3Qm94PSIwIDAgMjQgMjQiIGhlaWdodD0iMjRweCIgd2lkdGg9IjI0cHgiIHhtbG5zPSJodHRwOi8vd3d3LnczLm9yZy8yMDAwL3N2ZyI+PGRlZnM+PHN0eWxlPi5jbHMtMXtmaWxsOiNhZWNiZmE7fS5jbHMtMntmaWxsOiM2NjlkZjY7fS5jbHMtM3tmaWxsOiM0Mjg1ZjQ7fS5jbHMtNHtmaWxsOiNmZmY7fTwvc3R5bGU+PC9kZWZzPjx0aXRsZT5JY29uXzI0cHhfQ2xvdWRTdG9yYWdlX0NvbG9yPC90aXRsZT48ZyBkYXRhLW5hbWU9IlByb2R1Y3QgSWNvbnMiPjxyZWN0IGhlaWdodD0iNyIgd2lkdGg9IjIwIiB5PSI0IiB4PSIyIiBjbGFzcz0iY2xzLTEiLz48cmVjdCBoZWlnaHQ9IjciIHdpZHRoPSIyIiB5PSI0IiB4PSIyMCIgY2xhc3M9ImNscy0yIi8+PHBvbHlnb24gcG9pbnRzPSIyMiA0IDIwIDQgMjAgMTEgMjIgNCIgY2xhc3M9ImNscy0zIi8+PHJlY3QgaGVpZ2h0PSI3IiB3aWR0aD0iMiIgeT0iNCIgeD0iMiIgY2xhc3M9ImNscy0yIi8+PHJlY3QgaGVpZ2h0PSIxIiB3aWR0aD0iNiIgeT0iNyIgeD0iNiIgY2xhc3M9ImNscy00Ii8+PHJlY3Qgcng9IjEuNSIgaGVpZ2h0PSIzIiB3aWR0aD0iMyIgeT0iNiIgeD0iMTUiIGNsYXNzPSJjbHMtNCIvPjxyZWN0IGhlaWdodD0iNyIgd2lkdGg9IjIwIiB5PSIxMyIgeD0iMiIgY2xhc3M9ImNscy0xIi8+PHJlY3QgaGVpZ2h0PSI3IiB3aWR0aD0iMiIgeT0iMTMiIHg9IjIwIiBjbGFzcz0iY2xzLTIiLz48cG9seWdvbiBwb2ludHM9IjIyIDEzIDIwIDEzIDIwIDIwIDIyIDEzIiBjbGFzcz0iY2xzLTMiLz48cmVjdCBoZWlnaHQ9IjciIHdpZHRoPSIyIiB5PSIxMyIgeD0iMiIgY2xhc3M9ImNscy0yIi8+PHJlY3QgaGVpZ2h0PSIxIiB3aWR0aD0iNiIgeT0iMTYiIHg9IjYiIGNsYXNzPSJjbHMtNCIvPjxyZWN0IHJ4PSIxLjUiIGhlaWdodD0iMyIgd2lkdGg9IjMiIHk9IjE1IiB4PSIxNSIgY2xhc3M9ImNscy00Ii8+PC9nPjwvc3ZnPg==;labelPosition=right;align=left;fontFamily=Roboto;fontSource=https%3A%2F%2Ffonts.googleapis.com%2Fcss%3Ffamily%3DRoboto;" parent="uGHR-QCsVLS1HqOmRDyR-26" vertex="1">
          <mxGeometry x="10" width="30" height="30" as="geometry" />
        </mxCell>
        <mxCell id="uGHR-QCsVLS1HqOmRDyR-25" value="Cloud Storage" style="text;html=1;strokeColor=none;fillColor=none;align=center;verticalAlign=middle;whiteSpace=wrap;rounded=0;fontFamily=Roboto;fontSource=https%3A%2F%2Ffonts.googleapis.com%2Fcss%3Ffamily%3DRoboto;fontSize=11;fontColor=#9E9E9E;allowArrows=0;connectable=0;" parent="uGHR-QCsVLS1HqOmRDyR-26" vertex="1">
          <mxGeometry y="30" width="80" height="20" as="geometry" />
        </mxCell>
        <mxCell id="h4RZlXd0sAcOHO_w20zh-32" value="" style="group" vertex="1" connectable="0" parent="h4RZlXd0sAcOHO_w20zh-31">
          <mxGeometry x="650" y="390" width="140" height="50" as="geometry" />
        </mxCell>
        <mxCell id="h4RZlXd0sAcOHO_w20zh-33" value="" style="rounded=1;whiteSpace=wrap;html=1;strokeColor=none;shadow=1;fillColor=#E6E6E6;" vertex="1" parent="h4RZlXd0sAcOHO_w20zh-32">
          <mxGeometry width="140" height="50" as="geometry" />
        </mxCell>
        <mxCell id="h4RZlXd0sAcOHO_w20zh-34" value="your-models" style="shape=image;verticalLabelPosition=middle;labelBackgroundColor=none;verticalAlign=middle;aspect=fixed;imageAspect=0;image=data:image/svg+xml,PHN2ZyB2aWV3Qm94PSIwIDAgMjQgMjQiIGhlaWdodD0iMjRweCIgd2lkdGg9IjI0cHgiIHhtbG5zPSJodHRwOi8vd3d3LnczLm9yZy8yMDAwL3N2ZyI+PGRlZnM+PHN0eWxlPi5jbHMtMXtmaWxsOiNhZWNiZmE7fS5jbHMtMntmaWxsOiM2NjlkZjY7fS5jbHMtM3tmaWxsOiM0Mjg1ZjQ7fS5jbHMtNHtmaWxsOiNmZmY7fTwvc3R5bGU+PC9kZWZzPjx0aXRsZT5JY29uXzI0cHhfQ2xvdWRTdG9yYWdlX0NvbG9yPC90aXRsZT48ZyBkYXRhLW5hbWU9IlByb2R1Y3QgSWNvbnMiPjxyZWN0IGhlaWdodD0iNyIgd2lkdGg9IjIwIiB5PSI0IiB4PSIyIiBjbGFzcz0iY2xzLTEiLz48cmVjdCBoZWlnaHQ9IjciIHdpZHRoPSIyIiB5PSI0IiB4PSIyMCIgY2xhc3M9ImNscy0yIi8+PHBvbHlnb24gcG9pbnRzPSIyMiA0IDIwIDQgMjAgMTEgMjIgNCIgY2xhc3M9ImNscy0zIi8+PHJlY3QgaGVpZ2h0PSI3IiB3aWR0aD0iMiIgeT0iNCIgeD0iMiIgY2xhc3M9ImNscy0yIi8+PHJlY3QgaGVpZ2h0PSIxIiB3aWR0aD0iNiIgeT0iNyIgeD0iNiIgY2xhc3M9ImNscy00Ii8+PHJlY3Qgcng9IjEuNSIgaGVpZ2h0PSIzIiB3aWR0aD0iMyIgeT0iNiIgeD0iMTUiIGNsYXNzPSJjbHMtNCIvPjxyZWN0IGhlaWdodD0iNyIgd2lkdGg9IjIwIiB5PSIxMyIgeD0iMiIgY2xhc3M9ImNscy0xIi8+PHJlY3QgaGVpZ2h0PSI3IiB3aWR0aD0iMiIgeT0iMTMiIHg9IjIwIiBjbGFzcz0iY2xzLTIiLz48cG9seWdvbiBwb2ludHM9IjIyIDEzIDIwIDEzIDIwIDIwIDIyIDEzIiBjbGFzcz0iY2xzLTMiLz48cmVjdCBoZWlnaHQ9IjciIHdpZHRoPSIyIiB5PSIxMyIgeD0iMiIgY2xhc3M9ImNscy0yIi8+PHJlY3QgaGVpZ2h0PSIxIiB3aWR0aD0iNiIgeT0iMTYiIHg9IjYiIGNsYXNzPSJjbHMtNCIvPjxyZWN0IHJ4PSIxLjUiIGhlaWdodD0iMyIgd2lkdGg9IjMiIHk9IjE1IiB4PSIxNSIgY2xhc3M9ImNscy00Ii8+PC9nPjwvc3ZnPg==;labelPosition=right;align=left;fontFamily=Roboto;fontSource=https%3A%2F%2Ffonts.googleapis.com%2Fcss%3Ffamily%3DRoboto;" vertex="1" parent="h4RZlXd0sAcOHO_w20zh-32">
          <mxGeometry x="10" width="30" height="30" as="geometry" />
        </mxCell>
        <mxCell id="h4RZlXd0sAcOHO_w20zh-35" value="Cloud Storage" style="text;html=1;strokeColor=none;fillColor=none;align=center;verticalAlign=middle;whiteSpace=wrap;rounded=0;fontFamily=Roboto;fontSource=https%3A%2F%2Ffonts.googleapis.com%2Fcss%3Ffamily%3DRoboto;fontSize=11;fontColor=#9E9E9E;allowArrows=0;connectable=0;" vertex="1" parent="h4RZlXd0sAcOHO_w20zh-32">
          <mxGeometry y="30" width="80" height="20" as="geometry" />
        </mxCell>
        <mxCell id="h4RZlXd0sAcOHO_w20zh-26" value="Storage - BigQuery" style="locked=1;" parent="0" />
        <mxCell id="h4RZlXd0sAcOHO_w20zh-27" value="" style="rounded=1;whiteSpace=wrap;html=1;fillColor=none;strokeWidth=3;shadow=1;arcSize=7;" vertex="1" parent="h4RZlXd0sAcOHO_w20zh-26">
          <mxGeometry x="262" y="298" width="358" height="182" as="geometry" />
        </mxCell>
        <mxCell id="h4RZlXd0sAcOHO_w20zh-3" value="" style="group" vertex="1" connectable="0" parent="h4RZlXd0sAcOHO_w20zh-26">
          <mxGeometry x="470" y="342" width="130" height="50" as="geometry" />
        </mxCell>
        <mxCell id="h4RZlXd0sAcOHO_w20zh-4" value="" style="rounded=1;whiteSpace=wrap;html=1;strokeColor=none;shadow=1;fillColor=#E5E6E1;" vertex="1" parent="h4RZlXd0sAcOHO_w20zh-3">
          <mxGeometry width="130" height="50" as="geometry" />
        </mxCell>
        <mxCell id="h4RZlXd0sAcOHO_w20zh-5" value="BigQuery Table" style="text;html=1;strokeColor=none;fillColor=none;align=center;verticalAlign=middle;whiteSpace=wrap;rounded=0;fontFamily=Roboto;fontSource=https%3A%2F%2Ffonts.googleapis.com%2Fcss%3Ffamily%3DRoboto;fontSize=11;fontColor=#9E9E9E;" vertex="1" parent="h4RZlXd0sAcOHO_w20zh-3">
          <mxGeometry y="30" width="80" height="20" as="geometry" />
        </mxCell>
        <mxCell id="h4RZlXd0sAcOHO_w20zh-6" value="Titanic Facts" style="shape=image;verticalLabelPosition=middle;labelBackgroundColor=none;verticalAlign=middle;aspect=fixed;imageAspect=0;image=data:image/svg+xml,PHN2ZyB2aWV3Qm94PSIwIDAgMjQgMjQiIGhlaWdodD0iMjRweCIgd2lkdGg9IjI0cHgiIHhtbG5zPSJodHRwOi8vd3d3LnczLm9yZy8yMDAwL3N2ZyI+PGRlZnM+PHN0eWxlPi5jbHMtMXtmaWxsOiNhZWNiZmE7fS5jbHMtMSwuY2xzLTIsLmNscy0ze2ZpbGwtcnVsZTpldmVub2RkO30uY2xzLTJ7ZmlsbDojNjY5ZGY2O30uY2xzLTN7ZmlsbDojNDI4NWY0O308L3N0eWxlPjwvZGVmcz48dGl0bGU+SWNvbl8yNHB4X0JpZ1F1ZXJ5X0NvbG9yPC90aXRsZT48ZyBkYXRhLW5hbWU9IlByb2R1Y3QgSWNvbnMiPjxnPjxwYXRoIGQ9Ik02LjczLDEwLjgzdjIuNjNBNC45MSw0LjkxLDAsMCwwLDguNDQsMTUuMlYxMC44M1oiIGNsYXNzPSJjbHMtMSIvPjxwYXRoIGQ9Ik05Ljg5LDguNDF2Ny41M0E3LjYyLDcuNjIsMCwwLDAsMTEsMTYsOCw4LDAsMCwwLDEyLDE2VjguNDFaIiBjbGFzcz0iY2xzLTIiLz48cGF0aCBkPSJNMTMuNjQsMTEuODZ2My4yOWE1LDUsMCwwLDAsMS43LTEuODJWMTEuODZaIiBjbGFzcz0iY2xzLTEiLz48cGF0aCBkPSJNMTcuNzQsMTYuMzJsLTEuNDIsMS40MmEuNDIuNDIsMCwwLDAsMCwuNmwzLjU0LDMuNTRhLjQyLjQyLDAsMCwwLC41OSwwbDEuNDMtMS40M2EuNDIuNDIsMCwwLDAsMC0uNTlsLTMuNTQtMy41NGEuNDIuNDIsMCwwLDAtLjYsMCIgY2xhc3M9ImNscy0zIi8+PHBhdGggZD0iTTExLDJhOSw5LDAsMSwwLDksOSw5LDksMCwwLDAtOS05bTAsMTUuNjlBNi42OCw2LjY4LDAsMSwxLDE3LjY5LDExLDYuNjgsNi42OCwwLDAsMSwxMSwxNy42OSIgY2xhc3M9ImNscy0yIi8+PC9nPjwvZz48L3N2Zz4=;labelPosition=right;align=left;fontFamily=Roboto;fontSource=https%3A%2F%2Ffonts.googleapis.com%2Fcss%3Ffamily%3DRoboto;" vertex="1" parent="h4RZlXd0sAcOHO_w20zh-3">
          <mxGeometry x="10" width="30" height="30" as="geometry" />
        </mxCell>
        <mxCell id="MyIv35j_UBakCxaqDZsz-7" value="" style="group" parent="h4RZlXd0sAcOHO_w20zh-26" vertex="1" connectable="0">
          <mxGeometry x="274" y="342" width="130" height="50" as="geometry" />
        </mxCell>
        <mxCell id="MyIv35j_UBakCxaqDZsz-8" value="" style="rounded=1;whiteSpace=wrap;html=1;strokeColor=none;shadow=1;fillColor=#E5E6E1;" parent="MyIv35j_UBakCxaqDZsz-7" vertex="1">
          <mxGeometry width="130" height="50" as="geometry" />
        </mxCell>
        <mxCell id="MyIv35j_UBakCxaqDZsz-10" value="BigQuery Table" style="text;html=1;strokeColor=none;fillColor=none;align=center;verticalAlign=middle;whiteSpace=wrap;rounded=0;fontFamily=Roboto;fontSource=https%3A%2F%2Ffonts.googleapis.com%2Fcss%3Ffamily%3DRoboto;fontSize=11;fontColor=#9E9E9E;connectable=0;allowArrows=0;" parent="MyIv35j_UBakCxaqDZsz-7" vertex="1">
          <mxGeometry y="30" width="80" height="20" as="geometry" />
        </mxCell>
        <mxCell id="MyIv35j_UBakCxaqDZsz-12" value="Titanic Raw" style="shape=image;verticalLabelPosition=middle;labelBackgroundColor=none;verticalAlign=middle;aspect=fixed;imageAspect=0;image=data:image/svg+xml,PHN2ZyB2aWV3Qm94PSIwIDAgMjQgMjQiIGhlaWdodD0iMjRweCIgd2lkdGg9IjI0cHgiIHhtbG5zPSJodHRwOi8vd3d3LnczLm9yZy8yMDAwL3N2ZyI+PGRlZnM+PHN0eWxlPi5jbHMtMXtmaWxsOiNhZWNiZmE7fS5jbHMtMSwuY2xzLTIsLmNscy0ze2ZpbGwtcnVsZTpldmVub2RkO30uY2xzLTJ7ZmlsbDojNjY5ZGY2O30uY2xzLTN7ZmlsbDojNDI4NWY0O308L3N0eWxlPjwvZGVmcz48dGl0bGU+SWNvbl8yNHB4X0JpZ1F1ZXJ5X0NvbG9yPC90aXRsZT48ZyBkYXRhLW5hbWU9IlByb2R1Y3QgSWNvbnMiPjxnPjxwYXRoIGQ9Ik02LjczLDEwLjgzdjIuNjNBNC45MSw0LjkxLDAsMCwwLDguNDQsMTUuMlYxMC44M1oiIGNsYXNzPSJjbHMtMSIvPjxwYXRoIGQ9Ik05Ljg5LDguNDF2Ny41M0E3LjYyLDcuNjIsMCwwLDAsMTEsMTYsOCw4LDAsMCwwLDEyLDE2VjguNDFaIiBjbGFzcz0iY2xzLTIiLz48cGF0aCBkPSJNMTMuNjQsMTEuODZ2My4yOWE1LDUsMCwwLDAsMS43LTEuODJWMTEuODZaIiBjbGFzcz0iY2xzLTEiLz48cGF0aCBkPSJNMTcuNzQsMTYuMzJsLTEuNDIsMS40MmEuNDIuNDIsMCwwLDAsMCwuNmwzLjU0LDMuNTRhLjQyLjQyLDAsMCwwLC41OSwwbDEuNDMtMS40M2EuNDIuNDIsMCwwLDAsMC0uNTlsLTMuNTQtMy41NGEuNDIuNDIsMCwwLDAtLjYsMCIgY2xhc3M9ImNscy0zIi8+PHBhdGggZD0iTTExLDJhOSw5LDAsMSwwLDksOSw5LDksMCwwLDAtOS05bTAsMTUuNjlBNi42OCw2LjY4LDAsMSwxLDE3LjY5LDExLDYuNjgsNi42OCwwLDAsMSwxMSwxNy42OSIgY2xhc3M9ImNscy0yIi8+PC9nPjwvZz48L3N2Zz4=;labelPosition=right;align=left;fontFamily=Roboto;fontSource=https%3A%2F%2Ffonts.googleapis.com%2Fcss%3Ffamily%3DRoboto;connectable=0;allowArrows=0;" parent="MyIv35j_UBakCxaqDZsz-7" vertex="1">
          <mxGeometry x="10" width="30" height="30" as="geometry" />
        </mxCell>
        <mxCell id="h4RZlXd0sAcOHO_w20zh-30" value="&quot;Data Warehouse&quot;" style="shape=image;verticalLabelPosition=bottom;labelBackgroundColor=none;verticalAlign=top;aspect=fixed;imageAspect=0;image=data:image/svg+xml,PHN2ZyB2aWV3Qm94PSIwIDAgMjQgMjQiIGhlaWdodD0iMjRweCIgd2lkdGg9IjI0cHgiIHhtbG5zPSJodHRwOi8vd3d3LnczLm9yZy8yMDAwL3N2ZyI+PGRlZnM+PHN0eWxlPi5jbHMtMXtmaWxsOiNhZWNiZmE7fS5jbHMtMSwuY2xzLTIsLmNscy0ze2ZpbGwtcnVsZTpldmVub2RkO30uY2xzLTJ7ZmlsbDojNjY5ZGY2O30uY2xzLTN7ZmlsbDojNDI4NWY0O308L3N0eWxlPjwvZGVmcz48dGl0bGU+SWNvbl8yNHB4X0JpZ1F1ZXJ5X0NvbG9yPC90aXRsZT48ZyBkYXRhLW5hbWU9IlByb2R1Y3QgSWNvbnMiPjxnPjxwYXRoIGQ9Ik02LjczLDEwLjgzdjIuNjNBNC45MSw0LjkxLDAsMCwwLDguNDQsMTUuMlYxMC44M1oiIGNsYXNzPSJjbHMtMSIvPjxwYXRoIGQ9Ik05Ljg5LDguNDF2Ny41M0E3LjYyLDcuNjIsMCwwLDAsMTEsMTYsOCw4LDAsMCwwLDEyLDE2VjguNDFaIiBjbGFzcz0iY2xzLTIiLz48cGF0aCBkPSJNMTMuNjQsMTEuODZ2My4yOWE1LDUsMCwwLDAsMS43LTEuODJWMTEuODZaIiBjbGFzcz0iY2xzLTEiLz48cGF0aCBkPSJNMTcuNzQsMTYuMzJsLTEuNDIsMS40MmEuNDIuNDIsMCwwLDAsMCwuNmwzLjU0LDMuNTRhLjQyLjQyLDAsMCwwLC41OSwwbDEuNDMtMS40M2EuNDIuNDIsMCwwLDAsMC0uNTlsLTMuNTQtMy41NGEuNDIuNDIsMCwwLDAtLjYsMCIgY2xhc3M9ImNscy0zIi8+PHBhdGggZD0iTTExLDJhOSw5LDAsMSwwLDksOSw5LDksMCwwLDAtOS05bTAsMTUuNjlBNi42OCw2LjY4LDAsMSwxLDE3LjY5LDExLDYuNjgsNi42OCwwLDAsMSwxMSwxNy42OSIgY2xhc3M9ImNscy0yIi8+PC9nPjwvZz48L3N2Zz4=;labelPosition=center;align=center;fontFamily=Roboto;fontSource=https%3A%2F%2Ffonts.googleapis.com%2Fcss%3Ffamily%3DRoboto;textShadow=1;fontSize=10;spacingBottom=-3;spacingRight=0;spacingLeft=0;spacingTop=-8;fontStyle=0;fontColor=#8A8A8A;" vertex="1" parent="h4RZlXd0sAcOHO_w20zh-26">
          <mxGeometry x="399" y="430" width="30" height="30" as="geometry" />
        </mxCell>
        <mxCell id="h4RZlXd0sAcOHO_w20zh-46" value="" style="rounded=1;whiteSpace=wrap;html=1;strokeColor=none;shadow=1;fillColor=#E5E6E1;" vertex="1" parent="h4RZlXd0sAcOHO_w20zh-26">
          <mxGeometry x="470" y="420" width="130" height="50" as="geometry" />
        </mxCell>
        <mxCell id="h4RZlXd0sAcOHO_w20zh-45" value="" style="group" vertex="1" connectable="0" parent="h4RZlXd0sAcOHO_w20zh-26">
          <mxGeometry x="470" y="420" width="130" height="50" as="geometry" />
        </mxCell>
        <mxCell id="h4RZlXd0sAcOHO_w20zh-47" value="BigQuery Table" style="text;html=1;strokeColor=none;fillColor=none;align=center;verticalAlign=middle;whiteSpace=wrap;rounded=0;fontFamily=Roboto;fontSource=https%3A%2F%2Ffonts.googleapis.com%2Fcss%3Ffamily%3DRoboto;fontSize=11;fontColor=#9E9E9E;" vertex="1" parent="h4RZlXd0sAcOHO_w20zh-45">
          <mxGeometry y="30" width="80" height="20" as="geometry" />
        </mxCell>
        <mxCell id="h4RZlXd0sAcOHO_w20zh-48" value="Titanic &#xa;Predictions" style="shape=image;verticalLabelPosition=middle;labelBackgroundColor=none;verticalAlign=middle;aspect=fixed;imageAspect=0;image=data:image/svg+xml,PHN2ZyB2aWV3Qm94PSIwIDAgMjQgMjQiIGhlaWdodD0iMjRweCIgd2lkdGg9IjI0cHgiIHhtbG5zPSJodHRwOi8vd3d3LnczLm9yZy8yMDAwL3N2ZyI+PGRlZnM+PHN0eWxlPi5jbHMtMXtmaWxsOiNhZWNiZmE7fS5jbHMtMSwuY2xzLTIsLmNscy0ze2ZpbGwtcnVsZTpldmVub2RkO30uY2xzLTJ7ZmlsbDojNjY5ZGY2O30uY2xzLTN7ZmlsbDojNDI4NWY0O308L3N0eWxlPjwvZGVmcz48dGl0bGU+SWNvbl8yNHB4X0JpZ1F1ZXJ5X0NvbG9yPC90aXRsZT48ZyBkYXRhLW5hbWU9IlByb2R1Y3QgSWNvbnMiPjxnPjxwYXRoIGQ9Ik02LjczLDEwLjgzdjIuNjNBNC45MSw0LjkxLDAsMCwwLDguNDQsMTUuMlYxMC44M1oiIGNsYXNzPSJjbHMtMSIvPjxwYXRoIGQ9Ik05Ljg5LDguNDF2Ny41M0E3LjYyLDcuNjIsMCwwLDAsMTEsMTYsOCw4LDAsMCwwLDEyLDE2VjguNDFaIiBjbGFzcz0iY2xzLTIiLz48cGF0aCBkPSJNMTMuNjQsMTEuODZ2My4yOWE1LDUsMCwwLDAsMS43LTEuODJWMTEuODZaIiBjbGFzcz0iY2xzLTEiLz48cGF0aCBkPSJNMTcuNzQsMTYuMzJsLTEuNDIsMS40MmEuNDIuNDIsMCwwLDAsMCwuNmwzLjU0LDMuNTRhLjQyLjQyLDAsMCwwLC41OSwwbDEuNDMtMS40M2EuNDIuNDIsMCwwLDAsMC0uNTlsLTMuNTQtMy41NGEuNDIuNDIsMCwwLDAtLjYsMCIgY2xhc3M9ImNscy0zIi8+PHBhdGggZD0iTTExLDJhOSw5LDAsMSwwLDksOSw5LDksMCwwLDAtOS05bTAsMTUuNjlBNi42OCw2LjY4LDAsMSwxLDE3LjY5LDExLDYuNjgsNi42OCwwLDAsMSwxMSwxNy42OSIgY2xhc3M9ImNscy0yIi8+PC9nPjwvZz48L3N2Zz4=;labelPosition=right;align=left;fontFamily=Roboto;fontSource=https%3A%2F%2Ffonts.googleapis.com%2Fcss%3Ffamily%3DRoboto;" vertex="1" parent="h4RZlXd0sAcOHO_w20zh-45">
          <mxGeometry x="10" width="30" height="30" as="geometry" />
        </mxCell>
        <object label="Ingestion Phase | Layer" id="uGHR-QCsVLS1HqOmRDyR-12">
          <mxCell style="locked=1;" parent="0" />
        </object>
        <mxCell id="uGHR-QCsVLS1HqOmRDyR-13" value="Staging Phase" style="rounded=1;whiteSpace=wrap;html=1;fillColor=#E3E3E3;strokeColor=none;shadow=1;verticalAlign=top;align=left;arcSize=6;spacingLeft=7;fontStyle=0;fontFamily=Roboto;fontSource=https%3A%2F%2Ffonts.googleapis.com%2Fcss%3Ffamily%3DRoboto;fontSize=17;textShadow=1;horizontal=0;" parent="uGHR-QCsVLS1HqOmRDyR-12" vertex="1">
          <mxGeometry x="70" y="82" width="270" height="190" as="geometry" />
        </mxCell>
        <object label="Ingestion Phase | Objects" id="uGHR-QCsVLS1HqOmRDyR-14">
          <mxCell style="locked=1;" parent="0" />
        </object>
        <mxCell id="uGHR-QCsVLS1HqOmRDyR-33" value="" style="group" parent="uGHR-QCsVLS1HqOmRDyR-14" vertex="1" connectable="0">
          <mxGeometry x="110" y="142" width="130" height="50" as="geometry" />
        </mxCell>
        <mxCell id="uGHR-QCsVLS1HqOmRDyR-28" value="" style="rounded=1;whiteSpace=wrap;html=1;strokeColor=none;shadow=1;fillColor=#E5E6E1;gradientColor=#FAFAFA;" parent="uGHR-QCsVLS1HqOmRDyR-33" vertex="1">
          <mxGeometry width="130" height="50" as="geometry" />
        </mxCell>
        <mxCell id="uGHR-QCsVLS1HqOmRDyR-32" value="" style="shape=image;html=1;verticalAlign=top;verticalLabelPosition=bottom;labelBackgroundColor=#ffffff;imageAspect=0;aspect=fixed;image=https://cdn4.iconfinder.com/data/icons/scripting-and-programming-languages/512/Python_logo-128.png" parent="uGHR-QCsVLS1HqOmRDyR-33" vertex="1">
          <mxGeometry x="106" y="28" width="20" height="20" as="geometry" />
        </mxCell>
        <mxCell id="uGHR-QCsVLS1HqOmRDyR-30" value="Cloud Function" style="text;html=1;strokeColor=none;fillColor=none;align=center;verticalAlign=middle;whiteSpace=wrap;rounded=0;fontFamily=Roboto;fontSource=https%3A%2F%2Ffonts.googleapis.com%2Fcss%3Ffamily%3DRoboto;fontSize=11;fontColor=#9E9E9E;allowArrows=0;connectable=0;" parent="uGHR-QCsVLS1HqOmRDyR-33" vertex="1">
          <mxGeometry y="30" width="80" height="20" as="geometry" />
        </mxCell>
        <mxCell id="uGHR-QCsVLS1HqOmRDyR-31" value="Ingest Data" style="shape=image;verticalLabelPosition=middle;labelBackgroundColor=none;verticalAlign=middle;aspect=fixed;imageAspect=0;image=data:image/svg+xml,PHN2ZyB2aWV3Qm94PSIwIDAgMjQgMjQiIGhlaWdodD0iMjRweCIgd2lkdGg9IjI0cHgiIHhtbG5zPSJodHRwOi8vd3d3LnczLm9yZy8yMDAwL3N2ZyI+PGRlZnM+PHN0eWxlPi5jbHMtMXtmaWxsOiM2NjlkZjY7fS5jbHMtMntmaWxsOiM0Mjg1ZjQ7fS5jbHMtM3tmaWxsOiNhZWNiZmE7fTwvc3R5bGU+PC9kZWZzPjx0aXRsZT5JY29uXzI0cHhfRnVuY3Rpb25zX0NvbG9yPC90aXRsZT48ZyBkYXRhLW5hbWU9IlByb2R1Y3QgSWNvbnMiPjxnIGRhdGEtbmFtZT0iY29sb3JlZC0zMi9mdW5jdGlvbnMiPjxnPjxwb2x5Z29uIHBvaW50cz0iMiAxNS41NiA1IDE4IDUgNiAyIDguNDMgMiAxNS41NiIgY2xhc3M9ImNscy0xIi8+PHBvbHlnb24gcG9pbnRzPSIyIDEwIDUgOCA1IDYgMiAxMCIgY2xhc3M9ImNscy0yIi8+PHBvbHlnb24gcG9pbnRzPSI1IDE4IDUgMTYgMiAxNCA1IDE4IiBjbGFzcz0iY2xzLTIiLz48cG9seWdvbiBwb2ludHM9IjggMjAgMiAxNCAyIDE4IDYgMjIgOCAyMCIgY2xhc3M9ImNscy0zIi8+PC9nPjwvZz48cG9seWdvbiBwb2ludHM9IjUuOTkgMi4wMSAyIDYgMi4wMSAxMCA3Ljk5IDQuMDEgNS45OSAyLjAxIiBjbGFzcz0iY2xzLTMiLz48ZyBkYXRhLW5hbWU9ImNvbG9yZWQtMzIvZnVuY3Rpb25zIj48ZyBkYXRhLW5hbWU9IlNoYXBlIj48cG9seWdvbiBwb2ludHM9IjIyIDguNDUgMTkgNi4wMSAxOSAxOC4wMSAyMiAxNS41OSAyMiA4LjQ1IiBjbGFzcz0iY2xzLTEiLz48cG9seWdvbiBwb2ludHM9IjIyIDE0LjAxIDE5IDE2LjAxIDE5IDE4LjAxIDIyIDE0LjAxIiBjbGFzcz0iY2xzLTIiLz48cG9seWdvbiBwb2ludHM9IjE5IDYuMDEgMTkgOC4wMSAyMiAxMC4wMSAxOSA2LjAxIiBjbGFzcz0iY2xzLTIiLz48cG9seWdvbiBwb2ludHM9IjE2IDQuMDEgMjIgMTAuMDEgMjIgNi4wMSAxOCAyLjAxIDE2IDQuMDEiIGNsYXNzPSJjbHMtMyIvPjwvZz48L2c+PHBvbHlnb24gcG9pbnRzPSIxOC4wMSAyMiAyMiAxOC4wMSAyMS45OSAxNC4wMSAxNi4wMSAyMCAxOC4wMSAyMiIgY2xhc3M9ImNscy0zIi8+PGNpcmNsZSByPSIxIiBjeT0iMTIiIGN4PSI4IiBjbGFzcz0iY2xzLTMiIGlkPSJPdmFsIi8+PGNpcmNsZSByPSIxIiBjeT0iMTIiIGN4PSIxMiIgY2xhc3M9ImNscy0zIiBkYXRhLW5hbWU9Ik92YWwiIGlkPSJPdmFsLTIiLz48Y2lyY2xlIHI9IjEiIGN5PSIxMiIgY3g9IjE1Ljk5IiBjbGFzcz0iY2xzLTMiIGRhdGEtbmFtZT0iT3ZhbCIgaWQ9Ik92YWwtMyIvPjwvZz48L3N2Zz4=;labelPosition=right;align=left;fontFamily=Roboto;fontSource=https%3A%2F%2Ffonts.googleapis.com%2Fcss%3Ffamily%3DRoboto;shadow=1;textShadow=0;allowArrows=0;connectable=0;" parent="uGHR-QCsVLS1HqOmRDyR-33" vertex="1">
          <mxGeometry x="10" width="30" height="30" as="geometry" />
        </mxCell>
        <mxCell id="MyIv35j_UBakCxaqDZsz-2" value="" style="edgeStyle=orthogonalEdgeStyle;fontSize=12;html=1;endArrow=blockThin;endFill=1;rounded=0;strokeWidth=2;endSize=4;startSize=4;dashed=0;strokeColor=#4284F3;exitX=0.5;exitY=0;exitDx=0;exitDy=0;entryX=0.25;entryY=1;entryDx=0;entryDy=0;" parent="uGHR-QCsVLS1HqOmRDyR-14" source="MyIv35j_UBakCxaqDZsz-3" target="uGHR-QCsVLS1HqOmRDyR-28" edge="1">
          <mxGeometry width="100" relative="1" as="geometry">
            <mxPoint x="206" y="142" as="sourcePoint" />
            <mxPoint x="306" y="142" as="targetPoint" />
          </mxGeometry>
        </mxCell>
        <mxCell id="MyIv35j_UBakCxaqDZsz-4" value="" style="edgeStyle=orthogonalEdgeStyle;fontSize=12;html=1;endArrow=none;endFill=0;rounded=1;strokeWidth=2;endSize=4;startSize=4;dashed=0;strokeColor=#4284F3;exitX=0.465;exitY=-0.013;exitDx=0;exitDy=0;entryX=0.5;entryY=1;entryDx=0;entryDy=0;curved=0;exitPerimeter=0;" parent="uGHR-QCsVLS1HqOmRDyR-14" source="uGHR-QCsVLS1HqOmRDyR-22" target="MyIv35j_UBakCxaqDZsz-3" edge="1">
          <mxGeometry width="100" relative="1" as="geometry">
            <mxPoint x="176" y="92" as="sourcePoint" />
            <mxPoint x="176" y="152" as="targetPoint" />
          </mxGeometry>
        </mxCell>
        <mxCell id="MyIv35j_UBakCxaqDZsz-3" value="React to &#xa;new files" style="shape=image;verticalLabelPosition=middle;labelBackgroundColor=none;verticalAlign=middle;aspect=fixed;imageAspect=0;image=data:image/svg+xml,PHN2ZyB3aWR0aD0iMjQiIHZpZXdCb3g9IjAgLTk2MCA5NjAgOTYwIiBoZWlnaHQ9IjI0IiB4bWxucz0iaHR0cDovL3d3dy53My5vcmcvMjAwMC9zdmciPjxwYXRoIGQ9Ik02ODAtODBxLTYyIDAtMTAxLjUtMzFUNTE4LTIwMnEtMTctNTAtMzIuNS03MFQ0MTQtMzM2cS02Mi01MC05OC0xMTN0LTM2LTE1MXEwLTExOSA4MC41LTE5OS41VDU2MC04ODBxMTE5IDAgMTk5LjUgODAuNVQ4NDAtNjAwaC04MHEwLTg1LTU3LjUtMTQyLjVUNTYwLTgwMHEtODUgMC0xNDIuNSA1Ny41VDM2MC02MDBxMCA2OCAyNyAxMTZ0NzcgODZxNTIgMzggODEgNzR0NDMgNzhxMTQgNDQgMzMuNSA2NXQ1OC41IDIxcTMzIDAgNTYuNS0yMy41VDc2MC0yNDBoODBxMCA2Ni00NyAxMTNUNjgwLTgwWk0yNDgtMjkwcS01OS02MC05My41LTEzOS41VDEyMC02MDBxMC05MiAzNC41LTE3MlQyNDgtOTEybDU4IDU2cS01MCA1MC03OCAxMTUuNVQyMDAtNjAwcTAgNzQgMjggMTM5dDc4IDExNWwtNTggNTZabTMxMi0yMTBxLTQyIDAtNzEtMjkuNVQ0NjAtNjAwcTAtNDIgMjktNzF0NzEtMjlxNDIgMCA3MSAyOXQyOSA3MXEwIDQxLTI5IDcwLjVUNTYwLTUwMFoiLz48L3N2Zz4=;fontFamily=Roboto;fontSource=https%3A%2F%2Ffonts.googleapis.com%2Fcss%3Ffamily%3DRoboto;labelPosition=right;align=left;shadow=1;textShadow=1;" parent="uGHR-QCsVLS1HqOmRDyR-14" vertex="1">
          <mxGeometry x="130" y="242" width="24" height="24" as="geometry" />
        </mxCell>
        <mxCell id="MyIv35j_UBakCxaqDZsz-13" value="" style="edgeStyle=orthogonalEdgeStyle;fontSize=12;html=1;endArrow=blockThin;endFill=1;rounded=1;strokeWidth=2;endSize=4;startSize=4;strokeColor=#4284F3;exitX=0.5;exitY=1;exitDx=0;exitDy=0;dashed=1;curved=0;entryX=0.25;entryY=0;entryDx=0;entryDy=0;" parent="uGHR-QCsVLS1HqOmRDyR-14" source="MyIv35j_UBakCxaqDZsz-14" target="MyIv35j_UBakCxaqDZsz-8" edge="1">
          <mxGeometry width="100" relative="1" as="geometry">
            <mxPoint x="250" y="282" as="sourcePoint" />
            <mxPoint x="320" y="302" as="targetPoint" />
          </mxGeometry>
        </mxCell>
        <mxCell id="MyIv35j_UBakCxaqDZsz-15" value="" style="edgeStyle=orthogonalEdgeStyle;fontSize=12;html=1;endArrow=none;endFill=0;rounded=1;strokeWidth=2;endSize=4;startSize=4;strokeColor=#4284F3;exitX=1;exitY=0.5;exitDx=0;exitDy=0;entryX=0.5;entryY=0;entryDx=0;entryDy=0;dashed=1;curved=0;" parent="uGHR-QCsVLS1HqOmRDyR-14" source="uGHR-QCsVLS1HqOmRDyR-28" target="MyIv35j_UBakCxaqDZsz-14" edge="1">
          <mxGeometry width="100" relative="1" as="geometry">
            <mxPoint x="176" y="212" as="sourcePoint" />
            <mxPoint x="176" y="342" as="targetPoint" />
          </mxGeometry>
        </mxCell>
        <mxCell id="MyIv35j_UBakCxaqDZsz-14" value="Write to Table" style="shape=image;verticalLabelPosition=middle;labelBackgroundColor=none;verticalAlign=middle;aspect=fixed;imageAspect=0;image=data:image/svg+xml,PHN2ZyB3aWR0aD0iMjQiIHZpZXdCb3g9IjAgLTk2MCA5NjAgOTYwIiBoZWlnaHQ9IjI0IiB4bWxucz0iaHR0cDovL3d3dy53My5vcmcvMjAwMC9zdmciPjxwYXRoIGQ9Ik0xNjAtNDAwdi04MGgyODB2ODBIMTYwWm0wLTE2MHYtODBoNDQwdjgwSDE2MFptMC0xNjB2LTgwaDQ0MHY4MEgxNjBabTM2MCA1NjB2LTEyM2wyNjMtMjYyIDEyMyAxMjItMjYzIDI2M0g1MjBabTMwMC0yNjMtMzctMzcgMzcgMzdaTTU4MC0yMjBoMzhsMTIxLTEyMi0xOC0xOS0xOS0xOC0xMjIgMTIxdjM4Wm0xNDEtMTQxLTE5LTE4IDM3IDM3LTE4LTE5WiIvPjwvc3ZnPg==;fontFamily=Roboto;fontSource=https%3A%2F%2Ffonts.googleapis.com%2Fcss%3Ffamily%3DRoboto;labelPosition=left;align=right;shadow=1;" parent="uGHR-QCsVLS1HqOmRDyR-14" vertex="1">
          <mxGeometry x="295" y="212" width="24" height="24" as="geometry" />
        </mxCell>
        <mxCell id="MyIv35j_UBakCxaqDZsz-25" value="ingestion-complete" style="shape=image;verticalLabelPosition=middle;labelBackgroundColor=none;verticalAlign=middle;aspect=fixed;imageAspect=0;image=data:image/svg+xml,PHN2ZyB2aWV3Qm94PSIwIDAgMjQgMjQiIGhlaWdodD0iMjRweCIgd2lkdGg9IjI0cHgiIHhtbG5zOnhsaW5rPSJodHRwOi8vd3d3LnczLm9yZy8xOTk5L3hsaW5rIiB4bWxucz0iaHR0cDovL3d3dy53My5vcmcvMjAwMC9zdmciPjxkZWZzPjxzdHlsZT4uY2xzLTF7ZmlsdGVyOnVybCgjbHVtaW5vc2l0eS1ub2NsaXApO30uY2xzLTJ7ZmlsbDojNjY5ZGY2O30uY2xzLTN7bWFzazp1cmwoI21hc2spO30uY2xzLTR7ZmlsbDojNDI4NWY0O30uY2xzLTV7ZmlsbDojYWVjYmZhO308L3N0eWxlPjxmaWx0ZXIgY29sb3ItaW50ZXJwb2xhdGlvbi1maWx0ZXJzPSJzUkdCIiBmaWx0ZXJVbml0cz0idXNlclNwYWNlT25Vc2UiIGhlaWdodD0iMTIuNzYiIHdpZHRoPSIxNC43MyIgeT0iNC4xOSIgeD0iNC42NCIgaWQ9Imx1bWlub3NpdHktbm9jbGlwIj48ZmVGbG9vZCByZXN1bHQ9ImJnIiBmbG9vZC1jb2xvcj0iI2ZmZiIvPjxmZUJsZW5kIGluMj0iYmciIGluPSJTb3VyY2VHcmFwaGljIi8+PC9maWx0ZXI+PG1hc2sgbWFza1VuaXRzPSJ1c2VyU3BhY2VPblVzZSIgaGVpZ2h0PSIxMi43NiIgd2lkdGg9IjE0LjczIiB5PSI0LjE5IiB4PSI0LjY0IiBpZD0ibWFzayI+PGNpcmNsZSByPSIzLjU4IiBjeT0iMTIuMjMiIGN4PSIxMiIgY2xhc3M9ImNscy0xIi8+PC9tYXNrPjwvZGVmcz48dGl0bGU+SWNvbl8yNHB4X1B1Yi1TdWJfQ29sb3I8L3RpdGxlPjxnIGRhdGEtbmFtZT0iUHJvZHVjdCBJY29ucyI+PGNpcmNsZSByPSIxLjcyIiBjeT0iOC4yMSIgY3g9IjE4Ljk3IiBjbGFzcz0iY2xzLTIiLz48Y2lyY2xlIHI9IjEuNzIiIGN5PSI4LjIxIiBjeD0iNS4wMyIgY2xhc3M9ImNscy0yIi8+PGNpcmNsZSByPSIxLjcyIiBjeT0iMjAuMjgiIGN4PSIxMiIgY2xhc3M9ImNscy0yIi8+PGcgY2xhc3M9ImNscy0zIj48cmVjdCB0cmFuc2Zvcm09Im1hdHJpeCgwLjUsIC0wLjg3LCAwLjg3LCAwLjUsIC00LjU5LCAyMC41MykiIGhlaWdodD0iOC4wNCIgd2lkdGg9IjEuNTkiIHk9IjEwLjIyIiB4PSIxNC42OSIgY2xhc3M9ImNscy00Ii8+PHJlY3QgdHJhbnNmb3JtPSJ0cmFuc2xhdGUoLTUuOTggNi4xNykgcm90YXRlKC0zMCkiIGhlaWdodD0iMS41OSIgd2lkdGg9IjguMDQiIHk9IjEzLjQ1IiB4PSI0LjQ5IiBjbGFzcz0iY2xzLTQiLz48cmVjdCBoZWlnaHQ9IjguMDQiIHdpZHRoPSIxLjU5IiB5PSI0LjE5IiB4PSIxMS4yIiBjbGFzcz0iY2xzLTQiLz48L2c+PGNpcmNsZSByPSIyLjc4IiBjeT0iMTIuMjMiIGN4PSIxMiIgY2xhc3M9ImNscy01Ii8+PGNpcmNsZSByPSIyLjE5IiBjeT0iMTYuMjUiIGN4PSI1LjAzIiBjbGFzcz0iY2xzLTUiLz48Y2lyY2xlIHI9IjIuMTkiIGN5PSIxNi4yNSIgY3g9IjE4Ljk3IiBjbGFzcz0iY2xzLTUiLz48Y2lyY2xlIHI9IjIuMTkiIGN5PSI0LjE5IiBjeD0iMTIiIGNsYXNzPSJjbHMtNSIvPjwvZz48L3N2Zz4=;imageBackground=none;shadow=1;labelPosition=left;align=right;textShadow=1;whiteSpace=wrap;fontSize=10;fontFamily=Roboto;fontSource=https%3A%2F%2Ffonts.googleapis.com%2Fcss%3Ffamily%3DRoboto;" parent="uGHR-QCsVLS1HqOmRDyR-14" vertex="1">
          <mxGeometry x="160" y="92" width="30" height="30" as="geometry" />
        </mxCell>
        <mxCell id="h4RZlXd0sAcOHO_w20zh-1" value="" style="edgeStyle=orthogonalEdgeStyle;fontSize=12;html=1;endArrow=none;endFill=0;rounded=1;strokeWidth=2;endSize=4;startSize=4;strokeColor=#34A853;dashed=0;exitX=0.5;exitY=0;exitDx=0;exitDy=0;entryX=0.5;entryY=1;entryDx=0;entryDy=0;shadow=1;fontFamily=Roboto;fontSource=https%3A%2F%2Ffonts.googleapis.com%2Fcss%3Ffamily%3DRoboto;curved=0;" edge="1" parent="uGHR-QCsVLS1HqOmRDyR-14" source="uGHR-QCsVLS1HqOmRDyR-28" target="MyIv35j_UBakCxaqDZsz-25">
          <mxGeometry width="100" relative="1" as="geometry">
            <mxPoint x="290" y="212" as="sourcePoint" />
            <mxPoint x="390" y="212" as="targetPoint" />
          </mxGeometry>
        </mxCell>
        <object label="Facts | Layer" id="MyIv35j_UBakCxaqDZsz-16">
          <mxCell style="locked=1;" parent="0" />
        </object>
        <mxCell id="MyIv35j_UBakCxaqDZsz-17" value="Facts Phase" style="rounded=1;whiteSpace=wrap;html=1;fillColor=#D6D6D6;strokeColor=none;shadow=1;verticalAlign=top;align=left;arcSize=6;spacingLeft=7;fontStyle=0;fontFamily=Roboto;fontSource=https%3A%2F%2Ffonts.googleapis.com%2Fcss%3Ffamily%3DRoboto;fontSize=17;textShadow=1;horizontal=0;" parent="MyIv35j_UBakCxaqDZsz-16" vertex="1">
          <mxGeometry x="360" y="82" width="190" height="190" as="geometry" />
        </mxCell>
        <object label="Facts | Objects" id="MyIv35j_UBakCxaqDZsz-18">
          <mxCell style="locked=1;" parent="0" />
        </object>
        <mxCell id="MyIv35j_UBakCxaqDZsz-20" value="" style="group;connectable=1;" parent="MyIv35j_UBakCxaqDZsz-18" vertex="1" connectable="0">
          <mxGeometry x="393" y="142" width="130" height="50" as="geometry" />
        </mxCell>
        <mxCell id="MyIv35j_UBakCxaqDZsz-21" value="" style="rounded=1;whiteSpace=wrap;html=1;strokeColor=none;shadow=1;fillColor=#E5E6E1;gradientColor=#FAFAFA;" parent="MyIv35j_UBakCxaqDZsz-20" vertex="1">
          <mxGeometry width="130" height="50" as="geometry" />
        </mxCell>
        <mxCell id="MyIv35j_UBakCxaqDZsz-22" value="" style="shape=image;html=1;verticalAlign=top;verticalLabelPosition=bottom;labelBackgroundColor=#ffffff;imageAspect=0;aspect=fixed;image=https://cdn4.iconfinder.com/data/icons/scripting-and-programming-languages/512/Python_logo-128.png" parent="MyIv35j_UBakCxaqDZsz-20" vertex="1">
          <mxGeometry x="106" y="28" width="20" height="20" as="geometry" />
        </mxCell>
        <mxCell id="MyIv35j_UBakCxaqDZsz-23" value="Cloud Function" style="text;html=1;strokeColor=none;fillColor=none;align=center;verticalAlign=middle;whiteSpace=wrap;rounded=0;fontFamily=Roboto;fontSource=https%3A%2F%2Ffonts.googleapis.com%2Fcss%3Ffamily%3DRoboto;fontSize=11;fontColor=#9E9E9E;allowArrows=0;connectable=0;" parent="MyIv35j_UBakCxaqDZsz-20" vertex="1">
          <mxGeometry y="30" width="80" height="20" as="geometry" />
        </mxCell>
        <mxCell id="MyIv35j_UBakCxaqDZsz-24" value="Update Facts" style="shape=image;verticalLabelPosition=middle;labelBackgroundColor=none;verticalAlign=middle;aspect=fixed;imageAspect=0;image=data:image/svg+xml,PHN2ZyB2aWV3Qm94PSIwIDAgMjQgMjQiIGhlaWdodD0iMjRweCIgd2lkdGg9IjI0cHgiIHhtbG5zPSJodHRwOi8vd3d3LnczLm9yZy8yMDAwL3N2ZyI+PGRlZnM+PHN0eWxlPi5jbHMtMXtmaWxsOiM2NjlkZjY7fS5jbHMtMntmaWxsOiM0Mjg1ZjQ7fS5jbHMtM3tmaWxsOiNhZWNiZmE7fTwvc3R5bGU+PC9kZWZzPjx0aXRsZT5JY29uXzI0cHhfRnVuY3Rpb25zX0NvbG9yPC90aXRsZT48ZyBkYXRhLW5hbWU9IlByb2R1Y3QgSWNvbnMiPjxnIGRhdGEtbmFtZT0iY29sb3JlZC0zMi9mdW5jdGlvbnMiPjxnPjxwb2x5Z29uIHBvaW50cz0iMiAxNS41NiA1IDE4IDUgNiAyIDguNDMgMiAxNS41NiIgY2xhc3M9ImNscy0xIi8+PHBvbHlnb24gcG9pbnRzPSIyIDEwIDUgOCA1IDYgMiAxMCIgY2xhc3M9ImNscy0yIi8+PHBvbHlnb24gcG9pbnRzPSI1IDE4IDUgMTYgMiAxNCA1IDE4IiBjbGFzcz0iY2xzLTIiLz48cG9seWdvbiBwb2ludHM9IjggMjAgMiAxNCAyIDE4IDYgMjIgOCAyMCIgY2xhc3M9ImNscy0zIi8+PC9nPjwvZz48cG9seWdvbiBwb2ludHM9IjUuOTkgMi4wMSAyIDYgMi4wMSAxMCA3Ljk5IDQuMDEgNS45OSAyLjAxIiBjbGFzcz0iY2xzLTMiLz48ZyBkYXRhLW5hbWU9ImNvbG9yZWQtMzIvZnVuY3Rpb25zIj48ZyBkYXRhLW5hbWU9IlNoYXBlIj48cG9seWdvbiBwb2ludHM9IjIyIDguNDUgMTkgNi4wMSAxOSAxOC4wMSAyMiAxNS41OSAyMiA4LjQ1IiBjbGFzcz0iY2xzLTEiLz48cG9seWdvbiBwb2ludHM9IjIyIDE0LjAxIDE5IDE2LjAxIDE5IDE4LjAxIDIyIDE0LjAxIiBjbGFzcz0iY2xzLTIiLz48cG9seWdvbiBwb2ludHM9IjE5IDYuMDEgMTkgOC4wMSAyMiAxMC4wMSAxOSA2LjAxIiBjbGFzcz0iY2xzLTIiLz48cG9seWdvbiBwb2ludHM9IjE2IDQuMDEgMjIgMTAuMDEgMjIgNi4wMSAxOCAyLjAxIDE2IDQuMDEiIGNsYXNzPSJjbHMtMyIvPjwvZz48L2c+PHBvbHlnb24gcG9pbnRzPSIxOC4wMSAyMiAyMiAxOC4wMSAyMS45OSAxNC4wMSAxNi4wMSAyMCAxOC4wMSAyMiIgY2xhc3M9ImNscy0zIi8+PGNpcmNsZSByPSIxIiBjeT0iMTIiIGN4PSI4IiBjbGFzcz0iY2xzLTMiIGlkPSJPdmFsIi8+PGNpcmNsZSByPSIxIiBjeT0iMTIiIGN4PSIxMiIgY2xhc3M9ImNscy0zIiBkYXRhLW5hbWU9Ik92YWwiIGlkPSJPdmFsLTIiLz48Y2lyY2xlIHI9IjEiIGN5PSIxMiIgY3g9IjE1Ljk5IiBjbGFzcz0iY2xzLTMiIGRhdGEtbmFtZT0iT3ZhbCIgaWQ9Ik92YWwtMyIvPjwvZz48L3N2Zz4=;labelPosition=right;align=left;fontFamily=Roboto;fontSource=https%3A%2F%2Ffonts.googleapis.com%2Fcss%3Ffamily%3DRoboto;shadow=1;allowArrows=0;connectable=0;" parent="MyIv35j_UBakCxaqDZsz-20" vertex="1">
          <mxGeometry x="10" width="30" height="30" as="geometry" />
        </mxCell>
        <mxCell id="h4RZlXd0sAcOHO_w20zh-2" value="" style="edgeStyle=orthogonalEdgeStyle;fontSize=12;html=1;endArrow=blockThin;endFill=1;rounded=1;strokeWidth=2;endSize=4;startSize=4;strokeColor=#34A853;dashed=0;exitX=1;exitY=0.5;exitDx=0;exitDy=0;entryX=0.126;entryY=0.022;entryDx=0;entryDy=0;textShadow=0;shadow=1;curved=0;entryPerimeter=0;" edge="1" parent="MyIv35j_UBakCxaqDZsz-18" source="MyIv35j_UBakCxaqDZsz-25" target="MyIv35j_UBakCxaqDZsz-20">
          <mxGeometry width="100" relative="1" as="geometry">
            <mxPoint x="280" y="72" as="sourcePoint" />
            <mxPoint x="392" y="71.89999999999998" as="targetPoint" />
          </mxGeometry>
        </mxCell>
        <mxCell id="h4RZlXd0sAcOHO_w20zh-9" value="" style="edgeStyle=orthogonalEdgeStyle;fontSize=12;html=1;endArrow=classicThin;endFill=1;rounded=1;strokeWidth=2;endSize=4;startSize=4;strokeColor=#66FF66;dashed=1;entryX=0;entryY=0.5;entryDx=0;entryDy=0;curved=0;exitX=0.5;exitY=0;exitDx=0;exitDy=0;shadow=1;" edge="1" parent="MyIv35j_UBakCxaqDZsz-18" source="MyIv35j_UBakCxaqDZsz-8" target="h4RZlXd0sAcOHO_w20zh-8">
          <mxGeometry width="100" relative="1" as="geometry">
            <mxPoint x="360" y="342" as="sourcePoint" />
            <mxPoint x="474" y="352" as="targetPoint" />
          </mxGeometry>
        </mxCell>
        <mxCell id="h4RZlXd0sAcOHO_w20zh-7" value="" style="edgeStyle=orthogonalEdgeStyle;fontSize=12;html=1;endArrow=classicThin;endFill=1;rounded=1;strokeWidth=2;endSize=4;startSize=4;strokeColor=#66FF66;dashed=1;exitX=1;exitY=0.5;exitDx=0;exitDy=0;curved=0;entryX=0.5;entryY=0;entryDx=0;entryDy=0;shadow=1;" edge="1" parent="MyIv35j_UBakCxaqDZsz-18" source="h4RZlXd0sAcOHO_w20zh-8" target="h4RZlXd0sAcOHO_w20zh-4">
          <mxGeometry width="100" relative="1" as="geometry">
            <mxPoint x="321" y="332" as="sourcePoint" />
            <mxPoint x="532" y="312" as="targetPoint" />
          </mxGeometry>
        </mxCell>
        <mxCell id="h4RZlXd0sAcOHO_w20zh-8" value="&lt;div style=&quot;font-size: 10px;&quot;&gt;Move from Raw to Facts&lt;/div&gt;" style="rounded=1;whiteSpace=wrap;html=1;fontFamily=Roboto;fontSource=https%3A%2F%2Ffonts.googleapis.com%2Fcss%3Ffamily%3DRoboto;fontSize=10;strokeColor=none;shadow=1;fillColor=#CCFFCC;" vertex="1" parent="MyIv35j_UBakCxaqDZsz-18">
          <mxGeometry x="372" y="302" width="120" height="20" as="geometry" />
        </mxCell>
        <mxCell id="h4RZlXd0sAcOHO_w20zh-12" value="" style="edgeStyle=orthogonalEdgeStyle;fontSize=12;html=1;endArrow=blockThin;endFill=1;rounded=1;strokeWidth=2;endSize=4;startSize=4;dashed=1;dashPattern=1 3;strokeColor=#4284F3;entryX=0.444;entryY=0.016;entryDx=0;entryDy=0;curved=0;exitX=0.25;exitY=1;exitDx=0;exitDy=0;entryPerimeter=0;" edge="1" parent="MyIv35j_UBakCxaqDZsz-18" source="MyIv35j_UBakCxaqDZsz-20" target="h4RZlXd0sAcOHO_w20zh-8">
          <mxGeometry width="100" relative="1" as="geometry">
            <mxPoint x="420" y="142" as="sourcePoint" />
            <mxPoint x="350" y="302" as="targetPoint" />
          </mxGeometry>
        </mxCell>
        <mxCell id="h4RZlXd0sAcOHO_w20zh-13" value="Execute Query #1" style="edgeLabel;align=center;verticalAlign=middle;resizable=0;points=[];labelBackgroundColor=none;textShadow=1;fontFamily=Roboto;fontSource=https%3A%2F%2Ffonts.googleapis.com%2Fcss%3Ffamily%3DRoboto;horizontal=1;" vertex="1" connectable="0" parent="h4RZlXd0sAcOHO_w20zh-12">
          <mxGeometry x="-0.0565" y="1" relative="1" as="geometry">
            <mxPoint x="44" y="-32" as="offset" />
          </mxGeometry>
        </mxCell>
        <mxCell id="h4RZlXd0sAcOHO_w20zh-14" value="update-facts-complete" style="shape=image;verticalLabelPosition=middle;labelBackgroundColor=none;verticalAlign=middle;aspect=fixed;imageAspect=0;image=data:image/svg+xml,PHN2ZyB2aWV3Qm94PSIwIDAgMjQgMjQiIGhlaWdodD0iMjRweCIgd2lkdGg9IjI0cHgiIHhtbG5zOnhsaW5rPSJodHRwOi8vd3d3LnczLm9yZy8xOTk5L3hsaW5rIiB4bWxucz0iaHR0cDovL3d3dy53My5vcmcvMjAwMC9zdmciPjxkZWZzPjxzdHlsZT4uY2xzLTF7ZmlsdGVyOnVybCgjbHVtaW5vc2l0eS1ub2NsaXApO30uY2xzLTJ7ZmlsbDojNjY5ZGY2O30uY2xzLTN7bWFzazp1cmwoI21hc2spO30uY2xzLTR7ZmlsbDojNDI4NWY0O30uY2xzLTV7ZmlsbDojYWVjYmZhO308L3N0eWxlPjxmaWx0ZXIgY29sb3ItaW50ZXJwb2xhdGlvbi1maWx0ZXJzPSJzUkdCIiBmaWx0ZXJVbml0cz0idXNlclNwYWNlT25Vc2UiIGhlaWdodD0iMTIuNzYiIHdpZHRoPSIxNC43MyIgeT0iNC4xOSIgeD0iNC42NCIgaWQ9Imx1bWlub3NpdHktbm9jbGlwIj48ZmVGbG9vZCByZXN1bHQ9ImJnIiBmbG9vZC1jb2xvcj0iI2ZmZiIvPjxmZUJsZW5kIGluMj0iYmciIGluPSJTb3VyY2VHcmFwaGljIi8+PC9maWx0ZXI+PG1hc2sgbWFza1VuaXRzPSJ1c2VyU3BhY2VPblVzZSIgaGVpZ2h0PSIxMi43NiIgd2lkdGg9IjE0LjczIiB5PSI0LjE5IiB4PSI0LjY0IiBpZD0ibWFzayI+PGNpcmNsZSByPSIzLjU4IiBjeT0iMTIuMjMiIGN4PSIxMiIgY2xhc3M9ImNscy0xIi8+PC9tYXNrPjwvZGVmcz48dGl0bGU+SWNvbl8yNHB4X1B1Yi1TdWJfQ29sb3I8L3RpdGxlPjxnIGRhdGEtbmFtZT0iUHJvZHVjdCBJY29ucyI+PGNpcmNsZSByPSIxLjcyIiBjeT0iOC4yMSIgY3g9IjE4Ljk3IiBjbGFzcz0iY2xzLTIiLz48Y2lyY2xlIHI9IjEuNzIiIGN5PSI4LjIxIiBjeD0iNS4wMyIgY2xhc3M9ImNscy0yIi8+PGNpcmNsZSByPSIxLjcyIiBjeT0iMjAuMjgiIGN4PSIxMiIgY2xhc3M9ImNscy0yIi8+PGcgY2xhc3M9ImNscy0zIj48cmVjdCB0cmFuc2Zvcm09Im1hdHJpeCgwLjUsIC0wLjg3LCAwLjg3LCAwLjUsIC00LjU5LCAyMC41MykiIGhlaWdodD0iOC4wNCIgd2lkdGg9IjEuNTkiIHk9IjEwLjIyIiB4PSIxNC42OSIgY2xhc3M9ImNscy00Ii8+PHJlY3QgdHJhbnNmb3JtPSJ0cmFuc2xhdGUoLTUuOTggNi4xNykgcm90YXRlKC0zMCkiIGhlaWdodD0iMS41OSIgd2lkdGg9IjguMDQiIHk9IjEzLjQ1IiB4PSI0LjQ5IiBjbGFzcz0iY2xzLTQiLz48cmVjdCBoZWlnaHQ9IjguMDQiIHdpZHRoPSIxLjU5IiB5PSI0LjE5IiB4PSIxMS4yIiBjbGFzcz0iY2xzLTQiLz48L2c+PGNpcmNsZSByPSIyLjc4IiBjeT0iMTIuMjMiIGN4PSIxMiIgY2xhc3M9ImNscy01Ii8+PGNpcmNsZSByPSIyLjE5IiBjeT0iMTYuMjUiIGN4PSI1LjAzIiBjbGFzcz0iY2xzLTUiLz48Y2lyY2xlIHI9IjIuMTkiIGN5PSIxNi4yNSIgY3g9IjE4Ljk3IiBjbGFzcz0iY2xzLTUiLz48Y2lyY2xlIHI9IjIuMTkiIGN5PSI0LjE5IiBjeD0iMTIiIGNsYXNzPSJjbHMtNSIvPjwvZz48L3N2Zz4=;imageBackground=none;shadow=1;labelPosition=left;align=right;textShadow=1;whiteSpace=wrap;spacing=0;fontSize=10;" vertex="1" parent="MyIv35j_UBakCxaqDZsz-18">
          <mxGeometry x="475" y="92" width="31" height="30" as="geometry" />
        </mxCell>
        <mxCell id="h4RZlXd0sAcOHO_w20zh-15" value="" style="edgeStyle=orthogonalEdgeStyle;fontSize=12;html=1;endArrow=none;endFill=0;rounded=1;strokeWidth=2;endSize=4;startSize=4;strokeColor=#34A853;dashed=0;exitX=0.75;exitY=0;exitDx=0;exitDy=0;entryX=0.5;entryY=1;entryDx=0;entryDy=0;shadow=1;curved=0;" edge="1" parent="MyIv35j_UBakCxaqDZsz-18" source="MyIv35j_UBakCxaqDZsz-21" target="h4RZlXd0sAcOHO_w20zh-14">
          <mxGeometry width="100" relative="1" as="geometry">
            <mxPoint x="516" y="159" as="sourcePoint" />
            <mxPoint x="540" y="159" as="targetPoint" />
          </mxGeometry>
        </mxCell>
        <object label="Model Training | Layer" id="uGHR-QCsVLS1HqOmRDyR-18">
          <mxCell style="locked=1;" parent="0" />
        </object>
        <mxCell id="uGHR-QCsVLS1HqOmRDyR-17" value="Model Training &#xa;Phase" style="rounded=1;fillColor=#CCCCCC;strokeColor=none;shadow=1;verticalAlign=top;align=left;arcSize=6;spacingLeft=0;fontStyle=0;fontFamily=Roboto;fontSource=https%3A%2F%2Ffonts.googleapis.com%2Fcss%3Ffamily%3DRoboto;fontSize=17;textShadow=1;horizontal=0;spacing=2;spacingRight=3;whiteSpace=wrap;" parent="uGHR-QCsVLS1HqOmRDyR-18" vertex="1">
          <mxGeometry x="569" y="82" width="230" height="190" as="geometry" />
        </mxCell>
        <mxCell id="h4RZlXd0sAcOHO_w20zh-18" value="Model Training | Objects" style="locked=1;" parent="0" />
        <mxCell id="h4RZlXd0sAcOHO_w20zh-19" value="" style="group;connectable=1;fillColor=none;shadow=0;" vertex="1" connectable="0" parent="h4RZlXd0sAcOHO_w20zh-18">
          <mxGeometry x="629" y="142" width="130" height="50" as="geometry" />
        </mxCell>
        <mxCell id="h4RZlXd0sAcOHO_w20zh-20" value="" style="rounded=1;html=1;strokeColor=none;shadow=1;fillColor=#E5E6E1;fillStyle=auto;gradientColor=#FAFAFA;gradientDirection=south;glass=0;" vertex="1" parent="h4RZlXd0sAcOHO_w20zh-19">
          <mxGeometry width="130" height="50" as="geometry" />
        </mxCell>
        <mxCell id="h4RZlXd0sAcOHO_w20zh-21" value="" style="shape=image;html=1;verticalAlign=top;verticalLabelPosition=bottom;labelBackgroundColor=#ffffff;imageAspect=0;aspect=fixed;image=https://cdn4.iconfinder.com/data/icons/scripting-and-programming-languages/512/Python_logo-128.png;" vertex="1" parent="h4RZlXd0sAcOHO_w20zh-19">
          <mxGeometry x="106" y="28" width="20" height="20" as="geometry" />
        </mxCell>
        <mxCell id="h4RZlXd0sAcOHO_w20zh-22" value="Cloud Function" style="text;html=1;strokeColor=none;fillColor=none;align=center;verticalAlign=middle;rounded=0;fontFamily=Roboto;fontSource=https%3A%2F%2Ffonts.googleapis.com%2Fcss%3Ffamily%3DRoboto;fontSize=11;fontColor=#9E9E9E;connectable=0;allowArrows=0;" vertex="1" parent="h4RZlXd0sAcOHO_w20zh-19">
          <mxGeometry y="30" width="80" height="20" as="geometry" />
        </mxCell>
        <mxCell id="h4RZlXd0sAcOHO_w20zh-23" value="Train Model" style="shape=image;verticalLabelPosition=middle;labelBackgroundColor=none;verticalAlign=middle;aspect=fixed;imageAspect=0;image=data:image/svg+xml,PHN2ZyB2aWV3Qm94PSIwIDAgMjQgMjQiIGhlaWdodD0iMjRweCIgd2lkdGg9IjI0cHgiIHhtbG5zPSJodHRwOi8vd3d3LnczLm9yZy8yMDAwL3N2ZyI+PGRlZnM+PHN0eWxlPi5jbHMtMXtmaWxsOiM2NjlkZjY7fS5jbHMtMntmaWxsOiM0Mjg1ZjQ7fS5jbHMtM3tmaWxsOiNhZWNiZmE7fTwvc3R5bGU+PC9kZWZzPjx0aXRsZT5JY29uXzI0cHhfRnVuY3Rpb25zX0NvbG9yPC90aXRsZT48ZyBkYXRhLW5hbWU9IlByb2R1Y3QgSWNvbnMiPjxnIGRhdGEtbmFtZT0iY29sb3JlZC0zMi9mdW5jdGlvbnMiPjxnPjxwb2x5Z29uIHBvaW50cz0iMiAxNS41NiA1IDE4IDUgNiAyIDguNDMgMiAxNS41NiIgY2xhc3M9ImNscy0xIi8+PHBvbHlnb24gcG9pbnRzPSIyIDEwIDUgOCA1IDYgMiAxMCIgY2xhc3M9ImNscy0yIi8+PHBvbHlnb24gcG9pbnRzPSI1IDE4IDUgMTYgMiAxNCA1IDE4IiBjbGFzcz0iY2xzLTIiLz48cG9seWdvbiBwb2ludHM9IjggMjAgMiAxNCAyIDE4IDYgMjIgOCAyMCIgY2xhc3M9ImNscy0zIi8+PC9nPjwvZz48cG9seWdvbiBwb2ludHM9IjUuOTkgMi4wMSAyIDYgMi4wMSAxMCA3Ljk5IDQuMDEgNS45OSAyLjAxIiBjbGFzcz0iY2xzLTMiLz48ZyBkYXRhLW5hbWU9ImNvbG9yZWQtMzIvZnVuY3Rpb25zIj48ZyBkYXRhLW5hbWU9IlNoYXBlIj48cG9seWdvbiBwb2ludHM9IjIyIDguNDUgMTkgNi4wMSAxOSAxOC4wMSAyMiAxNS41OSAyMiA4LjQ1IiBjbGFzcz0iY2xzLTEiLz48cG9seWdvbiBwb2ludHM9IjIyIDE0LjAxIDE5IDE2LjAxIDE5IDE4LjAxIDIyIDE0LjAxIiBjbGFzcz0iY2xzLTIiLz48cG9seWdvbiBwb2ludHM9IjE5IDYuMDEgMTkgOC4wMSAyMiAxMC4wMSAxOSA2LjAxIiBjbGFzcz0iY2xzLTIiLz48cG9seWdvbiBwb2ludHM9IjE2IDQuMDEgMjIgMTAuMDEgMjIgNi4wMSAxOCAyLjAxIDE2IDQuMDEiIGNsYXNzPSJjbHMtMyIvPjwvZz48L2c+PHBvbHlnb24gcG9pbnRzPSIxOC4wMSAyMiAyMiAxOC4wMSAyMS45OSAxNC4wMSAxNi4wMSAyMCAxOC4wMSAyMiIgY2xhc3M9ImNscy0zIi8+PGNpcmNsZSByPSIxIiBjeT0iMTIiIGN4PSI4IiBjbGFzcz0iY2xzLTMiIGlkPSJPdmFsIi8+PGNpcmNsZSByPSIxIiBjeT0iMTIiIGN4PSIxMiIgY2xhc3M9ImNscy0zIiBkYXRhLW5hbWU9Ik92YWwiIGlkPSJPdmFsLTIiLz48Y2lyY2xlIHI9IjEiIGN5PSIxMiIgY3g9IjE1Ljk5IiBjbGFzcz0iY2xzLTMiIGRhdGEtbmFtZT0iT3ZhbCIgaWQ9Ik92YWwtMyIvPjwvZz48L3N2Zz4=;labelPosition=right;align=left;fontFamily=Roboto;fontSource=https%3A%2F%2Ffonts.googleapis.com%2Fcss%3Ffamily%3DRoboto;shadow=1;connectable=0;allowArrows=0;" vertex="1" parent="h4RZlXd0sAcOHO_w20zh-19">
          <mxGeometry x="10" width="30" height="30" as="geometry" />
        </mxCell>
        <mxCell id="h4RZlXd0sAcOHO_w20zh-37" value="" style="edgeStyle=orthogonalEdgeStyle;fontSize=12;html=1;endArrow=blockThin;endFill=1;rounded=1;strokeWidth=2;endSize=4;startSize=4;strokeColor=#34A853;dashed=0;exitX=1;exitY=0.5;exitDx=0;exitDy=0;entryX=0.5;entryY=0;entryDx=0;entryDy=0;textShadow=0;shadow=1;curved=0;" edge="1" parent="h4RZlXd0sAcOHO_w20zh-18" source="h4RZlXd0sAcOHO_w20zh-14" target="h4RZlXd0sAcOHO_w20zh-20">
          <mxGeometry width="100" relative="1" as="geometry">
            <mxPoint x="200" y="117" as="sourcePoint" />
            <mxPoint x="419" y="153" as="targetPoint" />
          </mxGeometry>
        </mxCell>
        <mxCell id="h4RZlXd0sAcOHO_w20zh-38" value="Retrieve data for training" style="shape=image;verticalLabelPosition=middle;labelBackgroundColor=none;verticalAlign=middle;aspect=fixed;imageAspect=0;image=data:image/svg+xml,PHN2ZyB4bWxucz0iaHR0cDovL3d3dy53My5vcmcvMjAwMC9zdmciIHdpZHRoPSI0OCIgdmlld0JveD0iMCA5NiA5NjAgOTYwIiBoZWlnaHQ9IjQ4Ij48cGF0aCBkPSJNODU2IDk5NCA3NDMgODgycS0yMSAxNS00NS41IDIzdC01MC41IDhxLTcxIDAtMTIwLjUtNDkuNVQ0NzcgNzQzcTAtNzEgNDkuNS0xMjAuNVQ2NDcgNTczcTcxIDAgMTIwLjUgNDkuNVQ4MTcgNzQzcTAgMjYtOC41IDUwLjVUNzg2IDg0MGwxMTIgMTEycTkgOSA5LjUgMjF0LTguNSAyMXEtOSA5LTIxLjUgOXQtMjEuNS05Wk02NDcgODUzcTQ2IDAgNzgtMzJ0MzItNzhxMC00Ni0zMi03OHQtNzgtMzJxLTQ2IDAtNzggMzJ0LTMyIDc4cTAgNDYgMzIgNzh0NzggMzJaTTYzIDc4OHEtMTAtNy0xMi0xOXQ0LTIybDE1MS0yNDFxOC0xMyAyMy41LTE0dDI1LjUgMTBsOTMgMTA5IDEzNS0yMThxOC0xNCAyNC41LTE0LjVUNTMzIDM5Mmw4MyAxMjNxLTE2IDItMzEgNi41VDU1NSA1MzJsLTQ1LTY5LTEzMSAyMTRxLTggMTMtMjMuNSAxNFQzMzAgNjgxbC05NC0xMTAtMTMwIDIwOHEtNyAxMS0xOS41IDE0VDYzIDc4OFptNjU4LTI2M3EtMTUtNi0zMS04dC0zMy00bDE5Ny0zMTBxNy0xMSAxOS41LTEzLjVUODk3IDE5NXExMCA3IDEyLjUgMTl0LTQuNSAyMkw3MjEgNTI1WiIvPjwvc3ZnPg==;labelPosition=left;align=right;whiteSpace=wrap;fontSize=11;fontFamily=Roboto;fontSource=https%3A%2F%2Ffonts.googleapis.com%2Fcss%3Ffamily%3DRoboto;" vertex="1" parent="h4RZlXd0sAcOHO_w20zh-18">
          <mxGeometry x="669" y="232" width="25" height="25" as="geometry" />
        </mxCell>
        <mxCell id="h4RZlXd0sAcOHO_w20zh-40" value="" style="edgeStyle=orthogonalEdgeStyle;fontSize=12;html=1;endArrow=none;endFill=0;rounded=1;strokeWidth=3;endSize=4;startSize=4;dashed=1;dashPattern=1 3;strokeColor=#4284F3;entryX=0.5;entryY=1;entryDx=0;entryDy=0;exitX=1;exitY=0.5;exitDx=0;exitDy=0;curved=0;" edge="1" parent="h4RZlXd0sAcOHO_w20zh-18" source="h4RZlXd0sAcOHO_w20zh-4" target="h4RZlXd0sAcOHO_w20zh-38">
          <mxGeometry width="100" relative="1" as="geometry">
            <mxPoint x="600" y="372" as="sourcePoint" />
            <mxPoint x="640" y="202" as="targetPoint" />
          </mxGeometry>
        </mxCell>
        <mxCell id="h4RZlXd0sAcOHO_w20zh-41" value="" style="edgeStyle=orthogonalEdgeStyle;fontSize=12;html=1;endArrow=open;endFill=0;rounded=0;strokeWidth=3;endSize=4;startSize=4;dashed=1;dashPattern=1 3;strokeColor=#4284F3;exitX=0.5;exitY=0;exitDx=0;exitDy=0;entryX=0.403;entryY=1.003;entryDx=0;entryDy=0;entryPerimeter=0;shadow=1;" edge="1" parent="h4RZlXd0sAcOHO_w20zh-18" source="h4RZlXd0sAcOHO_w20zh-38" target="h4RZlXd0sAcOHO_w20zh-19">
          <mxGeometry width="100" relative="1" as="geometry">
            <mxPoint x="629" y="377" as="sourcePoint" />
            <mxPoint x="689" y="192" as="targetPoint" />
          </mxGeometry>
        </mxCell>
        <mxCell id="h4RZlXd0sAcOHO_w20zh-42" value="Upload&#xa;Model" style="shape=image;verticalLabelPosition=middle;labelBackgroundColor=none;verticalAlign=middle;aspect=fixed;imageAspect=0;image=data:image/svg+xml,PHN2ZyB4bWxucz0iaHR0cDovL3d3dy53My5vcmcvMjAwMC9zdmciIHdpZHRoPSIyNCIgdmlld0JveD0iMCAtOTYwIDk2MCA5NjAiIGhlaWdodD0iMjQiPjxwYXRoIGQ9Ik0yNjAtMTYwcS05MSAwLTE1NS41LTYzVDQwLTM3N3EwLTc4IDQ3LTEzOXQxMjMtNzhxMjUtOTIgMTAwLTE0OXQxNzAtNTdxMTE3IDAgMTk4LjUgODEuNVQ3NjAtNTIwcTY5IDggMTE0LjUgNTkuNVQ5MjAtMzQwcTAgNzUtNTIuNSAxMjcuNVQ3NDAtMTYwSDUyMHEtMzMgMC01Ni41LTIzLjVUNDQwLTI0MHYtMjA2bC02NCA2Mi01Ni01NiAxNjAtMTYwIDE2MCAxNjAtNTYgNTYtNjQtNjJ2MjA2aDIyMHE0MiAwIDcxLTI5dDI5LTcxcTAtNDItMjktNzF0LTcxLTI5aC02MHYtODBxMC04My01OC41LTE0MS41VDQ4MC03MjBxLTgzIDAtMTQxLjUgNTguNVQyODAtNTIwaC0yMHEtNTggMC05OSA0MXQtNDEgOTlxMCA1OCA0MSA5OXQ5OSA0MWgxMDB2ODBIMjYwWm0yMjAtMjgwWiIvPjwvc3ZnPg==;labelPosition=left;align=right;whiteSpace=wrap;fontFamily=Roboto;fontSource=https%3A%2F%2Ffonts.googleapis.com%2Fcss%3Ffamily%3DRoboto;" vertex="1" parent="h4RZlXd0sAcOHO_w20zh-18">
          <mxGeometry x="760" y="233" width="24" height="24" as="geometry" />
        </mxCell>
        <mxCell id="h4RZlXd0sAcOHO_w20zh-43" value="" style="edgeStyle=orthogonalEdgeStyle;fontSize=12;html=1;endArrow=none;endFill=0;rounded=1;strokeWidth=3;endSize=4;startSize=4;dashed=1;dashPattern=1 3;strokeColor=#4284F3;entryX=0.5;entryY=0;entryDx=0;entryDy=0;exitX=1;exitY=0.5;exitDx=0;exitDy=0;curved=0;" edge="1" parent="h4RZlXd0sAcOHO_w20zh-18" source="h4RZlXd0sAcOHO_w20zh-20" target="h4RZlXd0sAcOHO_w20zh-42">
          <mxGeometry width="100" relative="1" as="geometry">
            <mxPoint x="610" y="377" as="sourcePoint" />
            <mxPoint x="692" y="267" as="targetPoint" />
          </mxGeometry>
        </mxCell>
        <mxCell id="h4RZlXd0sAcOHO_w20zh-44" value="" style="edgeStyle=orthogonalEdgeStyle;fontSize=12;html=1;endArrow=open;endFill=0;rounded=1;strokeWidth=3;endSize=4;startSize=4;dashed=1;dashPattern=1 3;strokeColor=#4284F3;entryX=0.874;entryY=0.015;entryDx=0;entryDy=0;curved=0;exitX=0.5;exitY=1;exitDx=0;exitDy=0;entryPerimeter=0;" edge="1" parent="h4RZlXd0sAcOHO_w20zh-18" source="h4RZlXd0sAcOHO_w20zh-42" target="h4RZlXd0sAcOHO_w20zh-33">
          <mxGeometry width="100" relative="1" as="geometry">
            <mxPoint x="770" y="260" as="sourcePoint" />
            <mxPoint x="782" y="243" as="targetPoint" />
          </mxGeometry>
        </mxCell>
        <object label="Model Prediction | Layer" id="uGHR-QCsVLS1HqOmRDyR-20">
          <mxCell style="locked=1;" parent="0" />
        </object>
        <mxCell id="uGHR-QCsVLS1HqOmRDyR-19" value="Predictions Phase" style="rounded=1;whiteSpace=wrap;html=1;fillColor=#BDBDBD;strokeColor=none;shadow=1;verticalAlign=top;align=left;arcSize=6;spacingLeft=7;fontStyle=0;fontFamily=Roboto;fontSource=https%3A%2F%2Ffonts.googleapis.com%2Fcss%3Ffamily%3DRoboto;fontSize=17;fontColor=#000000;textShadow=1;" parent="uGHR-QCsVLS1HqOmRDyR-20" vertex="1">
          <mxGeometry x="810" y="80" width="200" height="420" as="geometry" />
        </mxCell>
        <mxCell id="h4RZlXd0sAcOHO_w20zh-49" value="Predictions | Objects" style="locked=1;" parent="0" />
        <mxCell id="h4RZlXd0sAcOHO_w20zh-51" value="" style="group;connectable=1;fillColor=none;shadow=0;" vertex="1" connectable="0" parent="h4RZlXd0sAcOHO_w20zh-49">
          <mxGeometry x="866" y="390" width="130" height="50" as="geometry" />
        </mxCell>
        <mxCell id="h4RZlXd0sAcOHO_w20zh-52" value="" style="rounded=1;html=1;strokeColor=none;shadow=1;fillColor=#E5E6E1;fillStyle=auto;gradientColor=#FAFAFA;gradientDirection=south;glass=0;" vertex="1" parent="h4RZlXd0sAcOHO_w20zh-51">
          <mxGeometry width="130" height="50" as="geometry" />
        </mxCell>
        <mxCell id="h4RZlXd0sAcOHO_w20zh-53" value="" style="shape=image;html=1;verticalAlign=top;verticalLabelPosition=bottom;labelBackgroundColor=#ffffff;imageAspect=0;aspect=fixed;image=https://cdn4.iconfinder.com/data/icons/scripting-and-programming-languages/512/Python_logo-128.png;" vertex="1" parent="h4RZlXd0sAcOHO_w20zh-51">
          <mxGeometry x="106" y="28" width="20" height="20" as="geometry" />
        </mxCell>
        <mxCell id="h4RZlXd0sAcOHO_w20zh-54" value="Cloud Function" style="text;html=1;strokeColor=none;fillColor=none;align=center;verticalAlign=middle;rounded=0;fontFamily=Roboto;fontSource=https%3A%2F%2Ffonts.googleapis.com%2Fcss%3Ffamily%3DRoboto;fontSize=11;fontColor=#9E9E9E;connectable=0;allowArrows=0;" vertex="1" parent="h4RZlXd0sAcOHO_w20zh-51">
          <mxGeometry y="30" width="80" height="20" as="geometry" />
        </mxCell>
        <mxCell id="h4RZlXd0sAcOHO_w20zh-55" value="Prediction&#xa;Endpoint" style="shape=image;verticalLabelPosition=middle;labelBackgroundColor=none;verticalAlign=middle;aspect=fixed;imageAspect=0;image=data:image/svg+xml,PHN2ZyB2aWV3Qm94PSIwIDAgMjQgMjQiIGhlaWdodD0iMjRweCIgd2lkdGg9IjI0cHgiIHhtbG5zPSJodHRwOi8vd3d3LnczLm9yZy8yMDAwL3N2ZyI+PGRlZnM+PHN0eWxlPi5jbHMtMXtmaWxsOiM2NjlkZjY7fS5jbHMtMntmaWxsOiM0Mjg1ZjQ7fS5jbHMtM3tmaWxsOiNhZWNiZmE7fTwvc3R5bGU+PC9kZWZzPjx0aXRsZT5JY29uXzI0cHhfRnVuY3Rpb25zX0NvbG9yPC90aXRsZT48ZyBkYXRhLW5hbWU9IlByb2R1Y3QgSWNvbnMiPjxnIGRhdGEtbmFtZT0iY29sb3JlZC0zMi9mdW5jdGlvbnMiPjxnPjxwb2x5Z29uIHBvaW50cz0iMiAxNS41NiA1IDE4IDUgNiAyIDguNDMgMiAxNS41NiIgY2xhc3M9ImNscy0xIi8+PHBvbHlnb24gcG9pbnRzPSIyIDEwIDUgOCA1IDYgMiAxMCIgY2xhc3M9ImNscy0yIi8+PHBvbHlnb24gcG9pbnRzPSI1IDE4IDUgMTYgMiAxNCA1IDE4IiBjbGFzcz0iY2xzLTIiLz48cG9seWdvbiBwb2ludHM9IjggMjAgMiAxNCAyIDE4IDYgMjIgOCAyMCIgY2xhc3M9ImNscy0zIi8+PC9nPjwvZz48cG9seWdvbiBwb2ludHM9IjUuOTkgMi4wMSAyIDYgMi4wMSAxMCA3Ljk5IDQuMDEgNS45OSAyLjAxIiBjbGFzcz0iY2xzLTMiLz48ZyBkYXRhLW5hbWU9ImNvbG9yZWQtMzIvZnVuY3Rpb25zIj48ZyBkYXRhLW5hbWU9IlNoYXBlIj48cG9seWdvbiBwb2ludHM9IjIyIDguNDUgMTkgNi4wMSAxOSAxOC4wMSAyMiAxNS41OSAyMiA4LjQ1IiBjbGFzcz0iY2xzLTEiLz48cG9seWdvbiBwb2ludHM9IjIyIDE0LjAxIDE5IDE2LjAxIDE5IDE4LjAxIDIyIDE0LjAxIiBjbGFzcz0iY2xzLTIiLz48cG9seWdvbiBwb2ludHM9IjE5IDYuMDEgMTkgOC4wMSAyMiAxMC4wMSAxOSA2LjAxIiBjbGFzcz0iY2xzLTIiLz48cG9seWdvbiBwb2ludHM9IjE2IDQuMDEgMjIgMTAuMDEgMjIgNi4wMSAxOCAyLjAxIDE2IDQuMDEiIGNsYXNzPSJjbHMtMyIvPjwvZz48L2c+PHBvbHlnb24gcG9pbnRzPSIxOC4wMSAyMiAyMiAxOC4wMSAyMS45OSAxNC4wMSAxNi4wMSAyMCAxOC4wMSAyMiIgY2xhc3M9ImNscy0zIi8+PGNpcmNsZSByPSIxIiBjeT0iMTIiIGN4PSI4IiBjbGFzcz0iY2xzLTMiIGlkPSJPdmFsIi8+PGNpcmNsZSByPSIxIiBjeT0iMTIiIGN4PSIxMiIgY2xhc3M9ImNscy0zIiBkYXRhLW5hbWU9Ik92YWwiIGlkPSJPdmFsLTIiLz48Y2lyY2xlIHI9IjEiIGN5PSIxMiIgY3g9IjE1Ljk5IiBjbGFzcz0iY2xzLTMiIGRhdGEtbmFtZT0iT3ZhbCIgaWQ9Ik92YWwtMyIvPjwvZz48L3N2Zz4=;labelPosition=right;align=left;fontFamily=Roboto;fontSource=https%3A%2F%2Ffonts.googleapis.com%2Fcss%3Ffamily%3DRoboto;shadow=1;connectable=0;allowArrows=0;" vertex="1" parent="h4RZlXd0sAcOHO_w20zh-51">
          <mxGeometry x="10" width="30" height="30" as="geometry" />
        </mxCell>
        <mxCell id="h4RZlXd0sAcOHO_w20zh-56" value="User" style="sketch=0;outlineConnect=0;fontColor=#232F3E;gradientColor=none;fillColor=#232F3D;strokeColor=none;dashed=0;verticalLabelPosition=middle;verticalAlign=middle;align=left;html=1;fontSize=16;fontStyle=0;aspect=fixed;pointerEvents=1;shape=mxgraph.aws4.user;fontFamily=Roboto;fontSource=https%3A%2F%2Ffonts.googleapis.com%2Fcss%3Ffamily%3DRoboto;labelPosition=right;" vertex="1" parent="h4RZlXd0sAcOHO_w20zh-49">
          <mxGeometry x="880" y="130" width="50" height="50" as="geometry" />
        </mxCell>
        <mxCell id="h4RZlXd0sAcOHO_w20zh-57" value="Frontend&lt;div&gt;Application&lt;/div&gt;" style="rounded=1;whiteSpace=wrap;html=1;strokeColor=none;shadow=1;fontFamily=Roboto;fontSource=https%3A%2F%2Ffonts.googleapis.com%2Fcss%3Ffamily%3DRoboto;" vertex="1" parent="h4RZlXd0sAcOHO_w20zh-49">
          <mxGeometry x="852.5" y="180" width="105" height="40" as="geometry" />
        </mxCell>
        <UserObject label="Response" tags="Arrows predictions-resources" id="h4RZlXd0sAcOHO_w20zh-58">
          <mxCell style="edgeStyle=orthogonalEdgeStyle;fontSize=12;html=1;endArrow=blockThin;endFill=1;rounded=1;strokeWidth=2;endSize=4;startSize=4;strokeColor=#34A853;dashed=0;entryX=0.75;entryY=1;entryDx=0;entryDy=0;exitX=0.5;exitY=0;exitDx=0;exitDy=0;labelPosition=center;verticalLabelPosition=top;align=left;verticalAlign=bottom;labelBackgroundColor=none;horizontal=0;fontFamily=Roboto;fontSource=https%3A%2F%2Ffonts.googleapis.com%2Fcss%3Ffamily%3DRoboto;" edge="1" parent="h4RZlXd0sAcOHO_w20zh-49" source="h4RZlXd0sAcOHO_w20zh-51" target="h4RZlXd0sAcOHO_w20zh-57">
            <mxGeometry x="-0.2718" y="-15" width="100" relative="1" as="geometry">
              <mxPoint x="1040" y="224" as="sourcePoint" />
              <mxPoint x="1190" y="224" as="targetPoint" />
              <mxPoint as="offset" />
            </mxGeometry>
          </mxCell>
        </UserObject>
        <UserObject label="" tags="Arrows predictions-resources" id="h4RZlXd0sAcOHO_w20zh-59">
          <mxCell style="edgeStyle=orthogonalEdgeStyle;fontSize=12;html=1;endArrow=blockThin;endFill=1;rounded=1;strokeWidth=2;endSize=4;startSize=4;dashed=0;strokeColor=#9E9E9E;entryX=0.27;entryY=0.04;entryDx=0;entryDy=0;exitX=0.459;exitY=1.022;exitDx=0;exitDy=0;entryPerimeter=0;exitPerimeter=0;horizontal=0;" edge="1" parent="h4RZlXd0sAcOHO_w20zh-49" source="h4RZlXd0sAcOHO_w20zh-57" target="h4RZlXd0sAcOHO_w20zh-51">
            <mxGeometry width="100" relative="1" as="geometry">
              <mxPoint x="1001.5" y="330" as="sourcePoint" />
              <mxPoint x="710" y="475" as="targetPoint" />
            </mxGeometry>
          </mxCell>
        </UserObject>
        <mxCell id="h4RZlXd0sAcOHO_w20zh-60" value="Request" style="edgeLabel;html=1;align=left;verticalAlign=middle;resizable=0;points=[];labelPosition=center;verticalLabelPosition=bottom;textDirection=rtl;horizontal=0;spacing=0;spacingBottom=-15;labelBackgroundColor=none;fontFamily=Roboto;fontSource=https%3A%2F%2Ffonts.googleapis.com%2Fcss%3Ffamily%3DRoboto;fontSize=12;" vertex="1" connectable="0" parent="h4RZlXd0sAcOHO_w20zh-59">
          <mxGeometry x="-0.0898" relative="1" as="geometry">
            <mxPoint x="-21" y="-19" as="offset" />
          </mxGeometry>
        </mxCell>
        <mxCell id="h4RZlXd0sAcOHO_w20zh-61" value="Download model" style="shape=image;verticalLabelPosition=top;labelBackgroundColor=none;verticalAlign=bottom;aspect=fixed;imageAspect=0;image=data:image/svg+xml,PHN2ZyB4bWxucz0iaHR0cDovL3d3dy53My5vcmcvMjAwMC9zdmciIHdpZHRoPSIyNCIgdmlld0JveD0iMCAtOTYwIDk2MCA5NjAiIGhlaWdodD0iMjQiPjxwYXRoIGQ9Ik00ODAtMzIwIDI4MC01MjBsNTYtNTggMTA0IDEwNHYtMzI2aDgwdjMyNmwxMDQtMTA0IDU2IDU4LTIwMCAyMDBaTTI0MC0xNjBxLTMzIDAtNTYuNS0yMy41VDE2MC0yNDB2LTEyMGg4MHYxMjBoNDgwdi0xMjBoODB2MTIwcTAgMzMtMjMuNSA1Ni41VDcyMC0xNjBIMjQwWiIvPjwvc3ZnPg==;whiteSpace=wrap;labelPosition=center;align=center;fontFamily=Roboto;fontSource=https%3A%2F%2Ffonts.googleapis.com%2Fcss%3Ffamily%3DRoboto;spacingBottom=-3;" vertex="1" parent="h4RZlXd0sAcOHO_w20zh-49">
          <mxGeometry x="827" y="403" width="24" height="24" as="geometry" />
        </mxCell>
        <mxCell id="h4RZlXd0sAcOHO_w20zh-62" value="" style="edgeStyle=orthogonalEdgeStyle;fontSize=12;html=1;endArrow=blockThin;endFill=1;rounded=0;strokeWidth=2;endSize=4;startSize=4;dashed=1;dashPattern=1 3;strokeColor=#4284F3;entryX=0;entryY=0.5;entryDx=0;entryDy=0;exitX=1;exitY=0.5;exitDx=0;exitDy=0;" edge="1" parent="h4RZlXd0sAcOHO_w20zh-49" source="h4RZlXd0sAcOHO_w20zh-61" target="h4RZlXd0sAcOHO_w20zh-51">
          <mxGeometry width="100" relative="1" as="geometry">
            <mxPoint x="920" y="240" as="sourcePoint" />
            <mxPoint x="1020" y="240" as="targetPoint" />
          </mxGeometry>
        </mxCell>
        <mxCell id="h4RZlXd0sAcOHO_w20zh-63" value="" style="edgeStyle=orthogonalEdgeStyle;fontSize=12;html=1;endArrow=none;endFill=0;rounded=0;strokeWidth=2;endSize=4;startSize=4;dashed=1;dashPattern=1 3;strokeColor=#4284F3;entryX=0;entryY=0.5;entryDx=0;entryDy=0;exitX=1;exitY=0.5;exitDx=0;exitDy=0;" edge="1" parent="h4RZlXd0sAcOHO_w20zh-49" source="h4RZlXd0sAcOHO_w20zh-33" target="h4RZlXd0sAcOHO_w20zh-61">
          <mxGeometry width="100" relative="1" as="geometry">
            <mxPoint x="854" y="425" as="sourcePoint" />
            <mxPoint x="876" y="425" as="targetPoint" />
          </mxGeometry>
        </mxCell>
        <mxCell id="h4RZlXd0sAcOHO_w20zh-64" value="Write request" style="shape=image;verticalLabelPosition=bottom;labelBackgroundColor=none;verticalAlign=top;aspect=fixed;imageAspect=0;image=data:image/svg+xml,PHN2ZyB4bWxucz0iaHR0cDovL3d3dy53My5vcmcvMjAwMC9zdmciIHdpZHRoPSI0OCIgdmlld0JveD0iMCA5NiA5NjAgOTYwIiBoZWlnaHQ9IjQ4Ij48cGF0aCBkPSJNMTgwIDg3Nmg0NGw0NDMtNDQzLTQ0LTQ0LTQ0MyA0NDN2NDRabTYxNC00ODZMNjY2IDI2Mmw4NC04NCAxMjggMTI4LTg0IDg0Wk0xMjAgOTM2VjgwOGw1MDQtNTA0IDEyOCAxMjgtNTA0IDUwNEgxMjBabTUyNS01MjUtMjItMjIgNDQgNDQtMjItMjJaIi8+PC9zdmc+;imageBackground=none;fillStyle=auto;strokeColor=default;fontFamily=Roboto;fontSize=12;fontColor=default;fillColor=default;spacingTop=-8;labelPosition=center;align=center;spacingBottom=-1;fontSource=https%3A%2F%2Ffonts.googleapis.com%2Fcss%3Ffamily%3DRoboto;" vertex="1" parent="h4RZlXd0sAcOHO_w20zh-49">
          <mxGeometry x="843.9999999999998" y="449.99700000000007" width="18" height="18" as="geometry" />
        </mxCell>
        <mxCell id="h4RZlXd0sAcOHO_w20zh-65" value="" style="edgeStyle=orthogonalEdgeStyle;fontSize=12;html=1;endArrow=none;endFill=0;rounded=1;strokeWidth=2;endSize=4;startSize=4;dashed=1;dashPattern=1 3;strokeColor=#4284F3;entryX=1;entryY=0.5;entryDx=0;entryDy=0;exitX=0.5;exitY=1;exitDx=0;exitDy=0;fontFamily=Roboto;fontSource=https%3A%2F%2Ffonts.googleapis.com%2Fcss%3Ffamily%3DRoboto;curved=0;" edge="1" parent="h4RZlXd0sAcOHO_w20zh-49" source="h4RZlXd0sAcOHO_w20zh-51" target="h4RZlXd0sAcOHO_w20zh-64">
          <mxGeometry width="100" relative="1" as="geometry">
            <mxPoint x="800" y="425" as="sourcePoint" />
            <mxPoint x="830" y="425" as="targetPoint" />
          </mxGeometry>
        </mxCell>
        <mxCell id="h4RZlXd0sAcOHO_w20zh-66" value="" style="edgeStyle=orthogonalEdgeStyle;fontSize=12;html=1;endArrow=none;endFill=0;rounded=1;strokeWidth=2;endSize=4;startSize=4;dashed=1;dashPattern=1 3;strokeColor=#4284F3;entryX=1;entryY=0.75;entryDx=0;entryDy=0;exitX=0;exitY=0.5;exitDx=0;exitDy=0;fontFamily=Roboto;fontSource=https%3A%2F%2Ffonts.googleapis.com%2Fcss%3Ffamily%3DRoboto;curved=0;" edge="1" parent="h4RZlXd0sAcOHO_w20zh-49" source="h4RZlXd0sAcOHO_w20zh-64" target="h4RZlXd0sAcOHO_w20zh-46">
          <mxGeometry width="100" relative="1" as="geometry">
            <mxPoint x="941" y="450" as="sourcePoint" />
            <mxPoint x="863" y="479" as="targetPoint" />
          </mxGeometry>
        </mxCell>
        <mxCell id="h4RZlXd0sAcOHO_w20zh-67" value="Steps" parent="0" />
        <mxCell id="h4RZlXd0sAcOHO_w20zh-68" value="1" style="shape=ellipse;perimeter=ellipsePerimeter;strokeColor=#9AC7BF;strokeWidth=2;shadow=1;gradientColor=none;fontColor=#000000;align=center;html=1;fontStyle=1;spacingTop=-1;textShadow=1;fontFamily=Roboto;fontSource=https%3A%2F%2Ffonts.googleapis.com%2Fcss%3Ffamily%3DRoboto;" vertex="1" parent="h4RZlXd0sAcOHO_w20zh-67">
          <mxGeometry x="109" y="244" width="20" height="20" as="geometry" />
        </mxCell>
        <mxCell id="h4RZlXd0sAcOHO_w20zh-76" value="2" style="shape=ellipse;perimeter=ellipsePerimeter;strokeColor=#9AC7BF;strokeWidth=2;shadow=1;gradientColor=none;fontColor=#000000;align=center;html=1;fontStyle=1;spacingTop=-1;textShadow=1;fontFamily=Roboto;fontSource=https%3A%2F%2Ffonts.googleapis.com%2Fcss%3Ffamily%3DRoboto;" vertex="1" parent="h4RZlXd0sAcOHO_w20zh-67">
          <mxGeometry x="322" y="214" width="20" height="20" as="geometry" />
        </mxCell>
        <mxCell id="h4RZlXd0sAcOHO_w20zh-77" value="3" style="shape=ellipse;perimeter=ellipsePerimeter;strokeColor=#9AC7BF;strokeWidth=2;shadow=1;gradientColor=none;fontColor=#000000;align=center;html=1;fontStyle=1;spacingTop=-1;textShadow=1;fontFamily=Roboto;fontSource=https%3A%2F%2Ffonts.googleapis.com%2Fcss%3Ffamily%3DRoboto;" vertex="1" parent="h4RZlXd0sAcOHO_w20zh-67">
          <mxGeometry x="192" y="110" width="20" height="20" as="geometry" />
        </mxCell>
        <mxCell id="h4RZlXd0sAcOHO_w20zh-78" value="4" style="shape=ellipse;perimeter=ellipsePerimeter;strokeColor=#9AC7BF;strokeWidth=2;shadow=1;gradientColor=none;fontColor=#000000;align=center;html=1;fontStyle=1;spacingTop=-1;textShadow=1;fontFamily=Roboto;fontSource=https%3A%2F%2Ffonts.googleapis.com%2Fcss%3Ffamily%3DRoboto;" vertex="1" parent="h4RZlXd0sAcOHO_w20zh-67">
          <mxGeometry x="430" y="224" width="20" height="20" as="geometry" />
        </mxCell>
        <mxCell id="h4RZlXd0sAcOHO_w20zh-79" value="5" style="shape=ellipse;perimeter=ellipsePerimeter;strokeColor=#9AC7BF;strokeWidth=2;shadow=1;gradientColor=none;fontColor=#000000;align=center;html=1;fontStyle=1;spacingTop=-1;textShadow=1;fontFamily=Roboto;fontSource=https%3A%2F%2Ffonts.googleapis.com%2Fcss%3Ffamily%3DRoboto;" vertex="1" parent="h4RZlXd0sAcOHO_w20zh-67">
          <mxGeometry x="506" y="113" width="20" height="20" as="geometry" />
        </mxCell>
        <mxCell id="h4RZlXd0sAcOHO_w20zh-80" value="4" style="shape=ellipse;perimeter=ellipsePerimeter;strokeColor=#9AC7BF;strokeWidth=2;shadow=1;gradientColor=none;fontColor=#000000;align=center;html=1;fontStyle=1;spacingTop=-1;textShadow=1;fontFamily=Roboto;fontSource=https%3A%2F%2Ffonts.googleapis.com%2Fcss%3Ffamily%3DRoboto;" vertex="1" parent="h4RZlXd0sAcOHO_w20zh-67">
          <mxGeometry x="492" y="314" width="20" height="20" as="geometry" />
        </mxCell>
        <mxCell id="h4RZlXd0sAcOHO_w20zh-81" value="6" style="shape=ellipse;perimeter=ellipsePerimeter;strokeColor=#9AC7BF;strokeWidth=2;shadow=1;gradientColor=none;fontColor=#000000;align=center;html=1;fontStyle=1;spacingTop=-1;textShadow=1;fontFamily=Roboto;fontSource=https%3A%2F%2Ffonts.googleapis.com%2Fcss%3Ffamily%3DRoboto;" vertex="1" parent="h4RZlXd0sAcOHO_w20zh-67">
          <mxGeometry x="687" y="258" width="20" height="20" as="geometry" />
        </mxCell>
        <mxCell id="h4RZlXd0sAcOHO_w20zh-82" value="7" style="shape=ellipse;perimeter=ellipsePerimeter;strokeColor=#9AC7BF;strokeWidth=2;shadow=1;gradientColor=none;fontColor=#000000;align=center;html=1;fontStyle=1;spacingTop=-1;textShadow=1;fontFamily=Roboto;fontSource=https%3A%2F%2Ffonts.googleapis.com%2Fcss%3Ffamily%3DRoboto;" vertex="1" parent="h4RZlXd0sAcOHO_w20zh-67">
          <mxGeometry x="780" y="215" width="20" height="20" as="geometry" />
        </mxCell>
        <mxCell id="h4RZlXd0sAcOHO_w20zh-83" value="8" style="shape=ellipse;perimeter=ellipsePerimeter;strokeColor=#9AC7BF;strokeWidth=2;shadow=1;gradientColor=none;fontColor=#000000;align=center;html=1;fontStyle=1;spacingTop=-1;textShadow=1;fontFamily=Roboto;fontSource=https%3A%2F%2Ffonts.googleapis.com%2Fcss%3Ffamily%3DRoboto;" vertex="1" parent="h4RZlXd0sAcOHO_w20zh-67">
          <mxGeometry x="808" y="418" width="20" height="20" as="geometry" />
        </mxCell>
        <mxCell id="h4RZlXd0sAcOHO_w20zh-84" value="9" style="shape=ellipse;perimeter=ellipsePerimeter;strokeColor=#9AC7BF;strokeWidth=2;shadow=1;gradientColor=none;fontColor=#000000;align=center;html=1;fontStyle=1;spacingTop=-1;textShadow=1;fontFamily=Roboto;fontSource=https%3A%2F%2Ffonts.googleapis.com%2Fcss%3Ffamily%3DRoboto;" vertex="1" parent="h4RZlXd0sAcOHO_w20zh-67">
          <mxGeometry x="876" y="253" width="20" height="20" as="geometry" />
        </mxCell>
        <mxCell id="h4RZlXd0sAcOHO_w20zh-85" value="10" style="shape=ellipse;perimeter=ellipsePerimeter;strokeColor=#9AC7BF;strokeWidth=2;shadow=1;gradientColor=none;fontColor=#000000;align=center;html=1;fontStyle=1;spacingTop=-1;textShadow=1;fontFamily=Roboto;fontSource=https%3A%2F%2Ffonts.googleapis.com%2Fcss%3Ffamily%3DRoboto;" vertex="1" parent="h4RZlXd0sAcOHO_w20zh-67">
          <mxGeometry x="895" y="464" width="20" height="20" as="geometry" />
        </mxCell>
        <mxCell id="h4RZlXd0sAcOHO_w20zh-86" value="11" style="shape=ellipse;perimeter=ellipsePerimeter;strokeColor=#9AC7BF;strokeWidth=2;shadow=1;gradientColor=none;fontColor=#000000;align=center;html=1;fontStyle=1;spacingTop=-1;textShadow=1;fontFamily=Roboto;fontSource=https%3A%2F%2Ffonts.googleapis.com%2Fcss%3Ffamily%3DRoboto;" vertex="1" parent="h4RZlXd0sAcOHO_w20zh-67">
          <mxGeometry x="935" y="329" width="20" height="20" as="geometry" />
        </mxCell>
      </root>
    </mxGraphModel>
  </diagram>
</mxfile>
